<svg width="472" height="452" viewBox="0 0 472 452" fill="none" xmlns="http://www.w3.org/2000/svg">
<g clip-path="url(#clip0_3_109)">
<path d="M235.61 451.08C365.734 451.08 471.22 390.177 471.22 315.05C471.22 239.923 365.734 179.02 235.61 179.02C105.486 179.02 0 239.923 0 315.05C0 390.177 105.486 451.08 235.61 451.08Z" fill="#F5F5F5"/>
<path d="M215.03 392.65L118.08 336.65C115.68 335.27 115.68 333.03 118.08 331.65L223.15 271.02C224.492 270.339 225.975 269.984 227.48 269.984C228.985 269.984 230.468 270.339 231.81 271.02L328.81 327.02C331.2 328.4 331.2 330.63 328.81 332.02L223.69 392.65C222.348 393.331 220.865 393.686 219.36 393.686C217.855 393.686 216.372 393.331 215.03 392.65Z" fill="#E0E0E0"/>
<path d="M381.84 388.08C407.052 388.08 427.49 376.278 427.49 361.72C427.49 347.162 407.052 335.36 381.84 335.36C356.628 335.36 336.19 347.162 336.19 361.72C336.19 376.278 356.628 388.08 381.84 388.08Z" fill="#E0E0E0"/>
<path d="M58.92 368.19L18.28 344.73C15.99 343.41 15.99 341.26 18.28 339.94L254.67 203.46C255.956 202.809 257.378 202.47 258.82 202.47C260.262 202.47 261.684 202.809 262.97 203.46L303.61 226.92C305.9 228.25 305.9 230.39 303.61 231.71L67.22 368.19C65.9349 368.846 64.5127 369.188 63.07 369.188C61.6273 369.188 60.2051 368.846 58.92 368.19Z" fill="#E0E0E0"/>
<path d="M205 321.73L239.94 301.53C243.54 299.45 245.34 296.72 245.34 294C245.34 291.28 245.34 289.14 245.34 289.14L209.09 268.7C208.081 268.042 207.241 267.156 206.636 266.114C206.032 265.072 205.68 263.903 205.61 262.7V225.41L144.61 260.67V297.94C144.68 299.143 145.032 300.312 145.636 301.354C146.241 302.396 147.081 303.282 148.09 303.94L178.93 321.71C186.12 325.89 197.8 325.89 205 321.73Z" fill="#263238"/>
<path d="M159.26 305.56V310.4L148.07 303.96C147.063 303.301 146.224 302.415 145.622 301.373C145.019 300.331 144.669 299.162 144.6 297.96V260.67L156.22 253.96C156.47 256.91 156.73 259.96 156.97 262.96L148.82 267.68V295.52C148.885 296.723 149.234 297.893 149.837 298.936C150.439 299.978 151.28 300.864 152.29 301.52L159.26 305.56Z" fill="black"/>
<path d="M148.81 295.51C148.878 296.713 149.228 297.883 149.833 298.926C150.438 299.968 151.279 300.854 152.29 301.51L178.91 316.85C186.12 321.01 197.8 321.01 205 316.85L239.95 296.65C247.16 292.5 247.16 285.76 239.95 281.65L213.31 266.3C212.3 265.643 211.459 264.758 210.854 263.715C210.25 262.673 209.899 261.503 209.83 260.3V232.4L148.83 267.66L148.81 295.51Z" fill="#455A64"/>
<path d="M220.4 270.37L213.32 266.28C212.31 265.623 211.469 264.738 210.864 263.695C210.26 262.653 209.909 261.483 209.84 260.28V232.4L148.84 267.66V295.51C148.908 296.713 149.258 297.883 149.863 298.926C150.468 299.968 151.309 300.854 152.32 301.51L159.32 305.51L220.4 270.37Z" fill="#37474F"/>
<path d="M245.35 289.14V294.02C245.35 296.75 243.54 299.46 239.95 301.55L205.01 321.72C201.181 323.767 196.902 324.829 192.56 324.81V320.02C196.902 320.039 201.181 318.977 205.01 316.93L239.95 296.72C243.56 294.6 245.35 291.87 245.35 289.14Z" fill="#37474F"/>
<path d="M50.83 337.35C52.1488 337.988 53.5995 338.306 55.0641 338.278C56.5288 338.25 57.9663 337.877 59.26 337.19L295.26 200.94C296.527 200.116 297.581 199.004 298.337 197.696C299.092 196.387 299.529 194.919 299.61 193.41V8.3C299.561 6.83976 299.169 5.41154 298.466 4.13109C297.762 2.85064 296.767 1.75398 295.56 0.930005C294.243 0.29236 292.794 -0.025482 291.331 0.00231972C289.868 0.0301215 288.432 0.402782 287.14 1.09L51.14 137.34C49.8755 138.163 48.8233 139.273 48.0692 140.58C47.315 141.887 46.8801 143.353 46.8 144.86V330.02C46.8557 331.471 47.249 332.889 47.9486 334.161C48.6481 335.434 49.6347 336.526 50.83 337.35Z" fill="#455A64"/>
<path d="M59.26 337.18L295.26 200.94C296.524 200.114 297.576 199.002 298.33 197.694C299.084 196.385 299.519 194.918 299.6 193.41V8.3C299.6 5.53 297.66 4.40001 295.26 5.79001L59.26 142.02C57.994 142.845 56.9404 143.956 56.1845 145.265C55.4287 146.573 54.9921 148.041 54.91 149.55V334.65C54.91 337.45 56.86 338.57 59.26 337.18Z" fill="#37474F"/>
<path d="M58.62 342.15C57.3853 342.681 56.0513 342.941 54.7077 342.913C53.3641 342.886 52.0419 342.571 50.83 341.99C49.6181 341.164 48.6173 340.065 47.9086 338.782C47.1998 337.498 46.8029 336.065 46.75 334.6V323.02L54.91 327.74V339.32C54.91 341.85 56.56 343.02 58.62 342.15Z" fill="#37474F"/>
<path d="M54.91 327.74V339.31C54.91 342.08 56.91 343.21 59.26 341.82L295.26 205.57C296.519 204.738 297.565 203.62 298.312 202.309C299.059 200.997 299.487 199.528 299.56 198.02V186.43L54.91 327.74Z" fill="#455A64"/>
<path d="M63.07 305.93V152.27C63.12 151.366 63.3824 150.487 63.8359 149.703C64.2893 148.919 64.9211 148.254 65.68 147.76L288.83 18.92C290.27 18.09 291.44 18.76 291.44 20.42V174.08C291.392 174.986 291.13 175.867 290.676 176.653C290.223 177.438 289.59 178.105 288.83 178.6L65.67 307.44C64.23 308.27 63.07 307.59 63.07 305.93Z" fill="#27DEBF"/>
<path d="M63.07 305.93V152.27C63.12 151.366 63.3824 150.487 63.8359 149.703C64.2893 148.919 64.9211 148.254 65.68 147.76L288.83 18.92C290.27 18.09 291.44 18.76 291.44 20.42V174.08C291.392 174.986 291.13 175.867 290.676 176.653C290.223 177.438 289.59 178.105 288.83 178.6L65.67 307.44C64.23 308.27 63.07 307.59 63.07 305.93Z" fill="#27DEBF"/>
<path opacity="0.8" d="M63.07 305.93V152.27C63.12 151.366 63.3824 150.487 63.8359 149.703C64.2893 148.919 64.9211 148.254 65.68 147.76L288.83 18.92C290.27 18.09 291.44 18.76 291.44 20.42V174.08C291.392 174.986 291.13 175.867 290.676 176.653C290.223 177.438 289.59 178.105 288.83 178.6L65.67 307.44C64.23 308.27 63.07 307.59 63.07 305.93Z" fill="white"/>
<path d="M177.25 261.41C176.207 262.096 175.339 263.017 174.716 264.099C174.092 265.181 173.731 266.393 173.66 267.64C173.66 269.93 175.27 270.86 177.25 269.71C178.298 269.031 179.17 268.113 179.796 267.032C180.422 265.951 180.783 264.737 180.85 263.49C180.85 261.19 179.24 260.26 177.25 261.41Z" fill="#27DEBF"/>
<path d="M56.19 145.27C55.4177 146.573 54.9781 148.047 54.91 149.56V327.74L46.75 323.02V144.86C46.8037 143.344 47.2444 141.867 48.03 140.57L56.19 145.27Z" fill="#263238"/>
<path d="M108.56 161.17L241.94 84.17L247.28 87.25C248.01 87.7279 248.617 88.3705 249.053 89.1261C249.489 89.8816 249.741 90.729 249.79 91.6V190.02C249.742 190.89 249.489 191.736 249.053 192.49C248.617 193.244 248.01 193.884 247.28 194.36L118.87 268.44C118.093 268.827 117.238 269.028 116.37 269.028C115.502 269.028 114.647 268.827 113.87 268.44L111.04 266.8C110.31 266.324 109.703 265.684 109.267 264.93C108.831 264.176 108.578 263.33 108.53 262.46L108.56 161.17Z" fill="#27DEBF"/>
<path opacity="0.2" d="M108.56 161.17L241.94 84.17L247.28 87.25C248.01 87.7279 248.617 88.3705 249.053 89.1261C249.489 89.8816 249.741 90.729 249.79 91.6V190.02C249.742 190.89 249.489 191.736 249.053 192.49C248.617 193.244 248.01 193.884 247.28 194.36L118.87 268.44C118.093 268.827 117.238 269.028 116.37 269.028C115.502 269.028 114.647 268.827 113.87 268.44L111.04 266.8C110.31 266.324 109.703 265.684 109.267 264.93C108.831 264.176 108.578 263.33 108.53 262.46L108.56 161.17Z" fill="black"/>
<path d="M241.16 75.51L241.7 75.21L239.63 74.01C239.454 73.9093 239.27 73.8224 239.08 73.75L180.38 52.02C179.572 51.7582 178.702 51.7563 177.893 52.0146C177.084 52.2729 176.377 52.7784 175.87 53.46L110.21 149.32C109.183 150.971 108.598 152.858 108.51 154.8V161.17L110.51 162.35L241.85 84.16V77.79C241.839 76.9802 241.6 76.1899 241.16 75.51Z" fill="#27DEBF"/>
<path opacity="0.1" d="M178.56 53.89C178.299 54.0947 178.069 54.3373 177.88 54.61L112.21 150.5C111.671 151.348 111.259 152.272 110.99 153.24L108.99 152.06C109.138 151.567 109.315 151.082 109.52 150.61C109.61 150.41 109.7 150.22 109.8 150.03V149.94C109.904 149.739 110.021 149.546 110.15 149.36L175.81 53.47C175.909 53.3279 176.019 53.1942 176.14 53.07L176.49 52.75L178.56 53.89Z" fill="black"/>
<path opacity="0.35" d="M241.68 75.2C241.503 75.092 241.315 75.0016 241.12 74.93L182.41 53.17C181.765 52.9553 181.075 52.9088 180.407 53.0348C179.738 53.1607 179.113 53.4551 178.59 53.89L176.59 52.71C177.117 52.2792 177.744 51.9876 178.413 51.8618C179.082 51.736 179.772 51.7801 180.42 51.99L239.12 73.74C239.312 73.8117 239.496 73.9021 239.67 74.01L241.68 75.2Z" fill="white"/>
<path d="M109.56 150.57C109.65 150.37 109.74 150.18 109.84 149.99C109.71 150.18 109.62 150.37 109.56 150.57Z" fill="#27DEBF"/>
<path d="M177.91 54.61L112.24 150.5C111.218 152.166 110.639 154.067 110.56 156.02V162.39L243.94 85.39V79.02C243.893 78.1572 243.604 77.325 243.107 76.6179C242.611 75.9108 241.926 75.3572 241.13 75.02L182.41 53.18C181.605 52.9101 180.735 52.9031 179.926 53.1602C179.118 53.4173 178.411 53.925 177.91 54.61Z" fill="#27DEBF"/>
<path opacity="0.05" d="M243.93 79.02C243.903 78.2223 243.658 77.4474 243.22 76.78L111.02 153.29C110.738 154.174 110.583 155.093 110.56 156.02V162.39L243.94 85.39L243.93 79.02Z" fill="black"/>
<path d="M167.67 174.48C170.372 180.865 171.763 187.727 171.76 194.66V198.55L121.94 224.55V164.67C121.938 163.515 122.068 162.365 122.33 161.24C122.43 160.8 122.56 160.37 122.69 159.94L122.91 159.3C123.145 158.667 123.426 158.052 123.75 157.46C124.282 156.469 124.926 155.543 125.67 154.7C125.88 154.45 126.11 154.21 126.34 153.98C126.57 153.75 126.82 153.52 127.07 153.3C129.456 151.193 132.443 149.889 135.61 149.571C138.777 149.253 141.964 149.939 144.72 151.53C144.72 151.53 145.6 151.17 147.22 150.53C154.481 155.045 160.519 161.279 164.8 168.68C165.872 170.554 166.831 172.491 167.67 174.48Z" fill="#E0E0E0"/>
<path d="M327.67 327.78L219.37 390.44V384.56L327.66 321.89L327.67 327.78Z" fill="#F5F5F5"/>
<path d="M167.67 174.48C166.83 172.494 165.872 170.561 164.8 168.69C164.007 167.323 163.153 165.99 162.24 164.69C161.99 164.33 161.73 163.97 161.46 163.62C161.19 163.27 160.98 162.97 160.73 162.62C160.48 162.27 160.31 162.08 160.09 161.82L159.88 161.56L159.06 160.56C158.942 160.41 158.815 160.266 158.68 160.13C158.47 159.88 158.24 159.63 158.02 159.39C157.52 158.84 157.02 158.3 156.47 157.79C156.17 157.48 155.87 157.18 155.56 156.9C155.475 156.808 155.385 156.721 155.29 156.64L154.45 155.87C154.12 155.57 153.79 155.28 153.45 155C153.11 154.72 152.9 154.53 152.61 154.3C152.477 154.179 152.336 154.065 152.19 153.96C151.87 153.7 151.54 153.45 151.19 153.2C150.84 152.95 150.34 152.56 149.9 152.2C149.46 151.84 149.01 151.57 148.56 151.28L147.2 150.4L146.94 150.24L145.77 149.54C145.42 149.34 145.06 149.15 144.71 148.98C144.1 148.685 143.476 148.422 142.84 148.19C142.146 147.945 141.438 147.742 140.72 147.58L140.01 147.44C139.065 147.281 138.108 147.201 137.15 147.2H136.38C136.002 147.21 135.625 147.24 135.25 147.29L134.62 147.37L134.21 147.43C134.052 147.45 133.895 147.48 133.74 147.52H133.68L132.98 147.68C132.801 147.721 132.624 147.771 132.45 147.83L132.18 147.91C131.993 147.963 131.803 148.023 131.61 148.09C131.099 148.254 130.598 148.447 130.11 148.67C129.81 148.8 129.51 148.95 129.21 149.1C129.118 149.137 129.031 149.184 128.95 149.24C128.79 149.32 128.62 149.41 128.46 149.51L127.99 149.8C127.414 150.15 126.86 150.534 126.33 150.95C126.33 150.95 126.27 151 126.25 151.02C125.98 151.24 125.71 151.46 125.44 151.71L124.88 152.24C124.77 152.34 124.67 152.45 124.57 152.55C124.075 153.069 123.611 153.616 123.18 154.19C123 154.43 122.83 154.67 122.67 154.92C122.51 155.17 122.29 155.5 122.11 155.81C121.931 156.101 121.767 156.402 121.62 156.71C121.408 157.12 121.218 157.54 121.05 157.97C120.97 158.17 120.88 158.38 120.81 158.6C120.74 158.82 120.74 158.79 120.71 158.88C120.6 159.2 120.51 159.52 120.42 159.88C120.33 160.24 120.25 160.52 120.19 160.88C120.135 161.098 120.092 161.318 120.06 161.54C120.055 161.623 120.055 161.707 120.06 161.79C120.06 162.01 119.99 162.22 119.97 162.43C119.95 162.64 119.91 163 119.9 163.29C119.89 163.58 119.9 164.08 119.9 164.49V212.26H125.04V164.68C125.037 162.541 125.597 160.438 126.665 158.585C127.734 156.731 129.272 155.192 131.124 154.122C132.977 153.052 135.079 152.489 137.218 152.491C139.358 152.492 141.459 153.058 143.31 154.13C151.959 159.146 158.783 166.79 162.79 175.95L168.89 177.4C168.45 176.42 168.07 175.44 167.67 174.48Z" fill="#EBEBEB"/>
<path d="M246.36 191.29C246.32 191.361 246.273 191.428 246.22 191.49L190.63 173.87C188.521 172.938 186.146 172.798 183.941 173.475C181.737 174.153 179.851 175.604 178.63 177.56L119.21 265.88L117.01 267.15C116.765 267.321 116.481 267.428 116.184 267.461C115.887 267.494 115.587 267.453 115.31 267.34L176.42 176.34C177.645 174.388 179.531 172.941 181.733 172.262C183.935 171.583 186.308 171.717 188.42 172.64L246.36 191.29Z" fill="#27DEBF"/>
<path opacity="0.4" d="M173.15 186.23L173.29 186.11L119.2 265.88L117 267.15C116.754 267.319 116.47 267.424 116.174 267.457C115.877 267.49 115.577 267.45 115.3 267.34L171.03 184.94L173.15 186.23Z" fill="white"/>
<path opacity="0.4" d="M246.36 191.29C246.32 191.361 246.273 191.428 246.22 191.49L190.63 173.86C188.52 172.926 186.143 172.787 183.938 173.467C181.733 174.146 179.848 175.6 178.63 177.56L176.43 176.28C177.656 174.328 179.542 172.883 181.745 172.207C183.948 171.532 186.321 171.671 188.43 172.6L246.36 191.29Z" fill="white"/>
<path d="M249.69 90.96C249.57 90.24 249.19 90.04 248.69 90.38C248.443 90.5644 248.227 90.7873 248.05 91.04L247.77 91.43L192.92 174.82L184.73 186.23C184.203 186.895 183.504 187.403 182.71 187.701C181.915 187.999 181.054 188.075 180.22 187.92L173.15 186.24L119.15 166.37C118.787 166.296 118.413 166.296 118.05 166.37C117.909 166.398 117.772 166.442 117.64 166.5L119.64 165.32L171.38 184.32L178.19 186.76C179.024 186.917 179.886 186.842 180.681 186.544C181.476 186.246 182.174 185.737 182.7 185.07L190.89 173.67L246.01 89.89C246.178 89.6618 246.389 89.4683 246.63 89.32L241.86 86.57L243.86 85.42L247.16 87.32C247.803 87.7279 248.358 88.2599 248.792 88.8849C249.226 89.51 249.532 90.2155 249.69 90.96Z" fill="#27DEBF"/>
<path opacity="0.4" d="M192.92 174.81L184.73 186.22C184.203 186.885 183.504 187.393 182.71 187.691C181.915 187.989 181.054 188.065 180.22 187.91L173.15 186.23L173.29 186.11L173.63 185.57L178.26 186.67C179.094 186.827 179.956 186.752 180.751 186.454C181.546 186.156 182.244 185.647 182.77 184.98L190.88 173.7L192.92 174.81Z" fill="white"/>
<path opacity="0.1" d="M247.23 87.23L243.93 85.33L241.93 86.48L246.7 89.23C246.457 89.3762 246.246 89.5701 246.08 89.8L190.96 173.58L190.88 173.69L192.88 174.8L247.73 91.41L248.01 91.02C248.187 90.7672 248.403 90.5444 248.65 90.36C249.14 90.02 249.52 90.22 249.65 90.94C249.514 90.1918 249.229 89.4783 248.814 88.8412C248.398 88.2042 247.86 87.6564 247.23 87.23Z" fill="black"/>
<path d="M120.28 167.96L108.56 161.17V262.46C108.608 263.33 108.861 264.176 109.297 264.93C109.733 265.684 110.34 266.324 111.07 266.8L113.9 268.43C114.676 268.819 115.532 269.021 116.4 269.021C117.268 269.021 118.124 268.819 118.9 268.43L120.31 267.61L120.28 167.96Z" fill="#27DEBF"/>
<path opacity="0.15" d="M120.28 167.96L108.56 161.17V262.46C108.608 263.33 108.861 264.176 109.297 264.93C109.733 265.684 110.34 266.324 111.07 266.8L113.9 268.43C114.676 268.819 115.532 269.021 116.4 269.021C117.268 269.021 118.124 268.819 118.9 268.43L120.31 267.61L120.28 167.96Z" fill="black"/>
<path d="M247.77 91.43V188.75C247.744 189.652 247.474 190.529 246.99 191.29C246.623 191.935 246.121 192.495 245.52 192.93L245.43 192.99L245.26 193.1L116.9 267.2C116.746 267.295 116.582 267.372 116.41 267.43C116.399 267.28 116.399 267.13 116.41 266.98V168.58C116.388 168.228 116.451 167.875 116.595 167.553C116.74 167.231 116.96 166.948 117.237 166.73C117.515 166.511 117.841 166.364 118.188 166.299C118.535 166.235 118.893 166.256 119.23 166.36L173.23 186.23L180.3 187.91C181.134 188.065 181.995 187.989 182.79 187.691C183.584 187.393 184.283 186.885 184.81 186.22L193 174.81L247.77 91.43Z" fill="#455A64"/>
<path d="M249.74 91.59V190.02C249.709 190.921 249.439 191.797 248.96 192.56C248.587 193.204 248.087 193.766 247.49 194.21H247.39C247.339 194.25 247.286 194.287 247.23 194.32L118.87 268.42C118.625 268.594 118.339 268.704 118.041 268.739C117.742 268.774 117.439 268.733 117.16 268.62C116.947 268.496 116.767 268.322 116.637 268.113C116.506 267.904 116.428 267.666 116.41 267.42C116.399 267.27 116.399 267.12 116.41 266.97V168.57C116.388 168.218 116.451 167.865 116.595 167.543C116.74 167.221 116.96 166.938 117.237 166.72C117.515 166.501 117.841 166.354 118.188 166.289C118.535 166.225 118.893 166.246 119.23 166.35L173.23 186.22L180.3 187.9C181.134 188.055 181.995 187.979 182.79 187.681C183.584 187.383 184.283 186.875 184.81 186.21L193 174.8L247.85 91.41L248.13 91.02C248.98 89.75 249.74 90.02 249.74 91.59Z" fill="#27DEBF"/>
<path d="M247.23 194.33L247.4 194.22L247.49 194.16C248.089 193.722 248.59 193.163 248.96 192.52C249.433 191.769 249.702 190.907 249.74 190.02L192.93 174.82L230.93 203.72L247.23 194.33Z" fill="#27DEBF"/>
<path opacity="0.2" d="M247.23 194.33L247.4 194.22L247.49 194.16C248.089 193.722 248.59 193.163 248.96 192.52C249.433 191.769 249.702 190.907 249.74 190.02L192.93 174.82L230.93 203.72L247.23 194.33Z" fill="black"/>
<path d="M116.36 267.02C116.323 267.34 116.377 267.665 116.515 267.956C116.653 268.248 116.869 268.495 117.14 268.67C117.417 268.788 117.72 268.833 118.02 268.8C118.32 268.766 118.605 268.656 118.85 268.48L163.05 242.97L173.14 186.28L116.34 265.4L116.36 267.02Z" fill="#27DEBF"/>
<path opacity="0.15" d="M178.56 177.55L117.1 268.63C116.829 268.455 116.613 268.208 116.475 267.916C116.337 267.625 116.283 267.3 116.32 266.98V265.35L176.32 176.35L178.56 177.55Z" fill="black"/>
<path d="M248.96 192.52C248.59 193.163 248.089 193.722 247.49 194.16L247.4 194.22L118.87 268.43C118.625 268.606 118.34 268.716 118.04 268.75C117.74 268.783 117.437 268.738 117.16 268.62L178.63 177.53C179.861 175.562 181.76 174.104 183.978 173.423C186.197 172.741 188.587 172.882 190.71 173.82L248.96 192.52Z" fill="#27DEBF"/>
<path d="M248.96 192.52C248.593 193.165 248.091 193.725 247.49 194.16L247.4 194.22L118.87 268.43C118.623 268.601 118.338 268.708 118.039 268.741C117.74 268.774 117.438 268.733 117.16 268.62L118.87 265.9L245.16 193.02L245.26 192.96C245.792 192.57 246.244 192.081 246.59 191.52L248.96 192.52Z" fill="#27DEBF"/>
<path opacity="0.15" d="M108.98 152.02L110.98 153.2C110.706 154.115 110.565 155.065 110.56 156.02V162.38L108.56 161.2V154.83C108.566 153.878 108.707 152.932 108.98 152.02Z" fill="black"/>
<path d="M119.71 165.28L117.67 166.46L115.61 165.27L110.54 162.35L112.51 161.18L119.71 165.28Z" fill="#27DEBF"/>
<path opacity="0.1" d="M119.8 165.32L112.56 161.18L110.56 162.35L115.63 165.27L117.69 166.46L118.08 166.34C118.443 166.266 118.817 166.266 119.18 166.34L123.28 167.86L170.39 185.2L171.13 184.11L119.8 165.32Z" fill="black"/>
<path d="M197.73 371.82C189.921 367.295 183.436 360.8 178.922 352.984C174.409 345.169 172.026 336.305 172.01 327.28V194.85C172.021 187.852 170.62 180.924 167.89 174.48C163.455 163.954 155.692 155.173 145.79 149.48C142.139 147.341 137.839 146.591 133.68 147.37L142.13 142.5L189.71 115.02L236.66 87.75L236.81 87.66C239.359 86.1805 242.253 85.3976 245.2 85.39C248.146 85.3929 251.038 86.1798 253.58 87.67C261.4 92.1849 267.894 98.6789 272.409 106.499C276.924 114.319 279.3 123.19 279.3 132.22V264.6C279.32 273.807 281.756 282.847 286.364 290.817C290.972 298.787 297.591 305.409 305.56 310.02L326.46 322.08L219.13 384.17L197.73 371.82Z" fill="white"/>
<path d="M245.2 84.85V85.85C248.059 85.8536 250.866 86.6199 253.33 88.07C261.076 92.5374 267.508 98.9664 271.979 106.71C276.451 114.453 278.803 123.238 278.8 132.18V264.6C278.817 273.89 281.27 283.013 285.915 291.058C290.559 299.104 297.233 305.79 305.27 310.45L325.42 322.09L219.13 383.59L197.98 371.38C190.252 366.899 183.836 360.467 179.375 352.728C174.914 344.989 172.564 336.213 172.56 327.28V194.85C172.556 185.554 170.102 176.424 165.447 168.378C160.791 160.332 154.097 153.656 146.04 149.02C143.272 147.394 140.12 146.538 136.91 146.54C136.62 146.54 136.33 146.54 136.03 146.54L142.38 142.88L189.96 115.4L236.96 88.12L237.08 88.05C239.556 86.6111 242.367 85.8489 245.23 85.84V84.84M245.23 84.84C242.191 84.8486 239.209 85.6556 236.58 87.18L236.44 87.26L189.46 114.55L141.88 142.02L128.98 149.46C131.432 148.196 134.151 147.534 136.91 147.53C139.944 147.532 142.924 148.343 145.54 149.88C153.432 154.435 159.985 160.988 164.54 168.88C165.612 170.751 166.57 172.684 167.41 174.67C170.133 181.05 171.544 187.913 171.56 194.85V327.28C171.557 336.404 173.958 345.368 178.523 353.268C183.088 361.168 189.654 367.726 197.56 372.28L219.2 384.78L327.49 322.11L305.84 309.61C297.936 305.054 291.371 298.495 286.807 290.596C282.243 282.696 279.84 273.733 279.84 264.61V132.18C279.84 123.057 277.437 114.094 272.873 106.194C268.309 98.2945 261.744 91.7365 253.84 87.18C251.221 85.6489 248.244 84.8381 245.21 84.83L245.23 84.84Z" fill="#F5F5F5"/>
<path d="M219.37 384.56L197.73 372.02C189.824 367.465 183.259 360.907 178.694 353.007C174.13 345.107 171.728 336.144 171.73 327.02V194.66C171.718 188.778 170.704 182.941 168.73 177.4L162.63 175.95L162.96 176.71C165.339 182.395 166.563 188.497 166.56 194.66V327.09C166.578 337.103 169.223 346.936 174.229 355.608C179.235 364.28 186.428 371.487 195.09 376.51L216.84 389.02L219.37 390.44V384.56Z" fill="#F0F0F0"/>
<path d="M199.07 158.25L245.72 131.34C246.075 131.124 246.343 130.791 246.478 130.399C246.613 130.006 246.607 129.578 246.46 129.19C245.83 127.66 245.11 126.19 244.34 124.69C243.67 123.44 242.96 122.22 242.2 121.03C241.977 120.692 241.633 120.453 241.239 120.36C240.845 120.267 240.431 120.328 240.08 120.53L193.42 147.46C193.26 147.534 193.117 147.639 192.999 147.769C192.881 147.9 192.791 148.053 192.734 148.219C192.677 148.386 192.654 148.562 192.667 148.737C192.68 148.913 192.729 149.084 192.81 149.24L193.47 150.24C194.578 152.023 195.58 153.869 196.47 155.77C196.74 156.36 197.01 156.96 197.26 157.57C197.322 157.743 197.422 157.9 197.551 158.031C197.68 158.162 197.836 158.263 198.008 158.328C198.18 158.393 198.364 158.419 198.548 158.406C198.731 158.392 198.909 158.339 199.07 158.25Z" fill="#27DEBF"/>
<path d="M168.56 152.42L254.64 102.74C254.805 102.661 254.948 102.543 255.056 102.395C255.164 102.248 255.235 102.076 255.26 101.895C255.286 101.714 255.267 101.529 255.204 101.357C255.141 101.185 255.037 101.032 254.9 100.91L254.01 100.05C253.683 99.7689 253.279 99.5936 252.85 99.5472C252.422 99.5008 251.989 99.5854 251.61 99.79L165.56 149.48C165.388 149.545 165.236 149.656 165.123 149.801C165.01 149.947 164.939 150.121 164.918 150.304C164.897 150.487 164.928 150.672 165.006 150.839C165.084 151.006 165.206 151.148 165.36 151.25L166.24 152.1C166.544 152.39 166.932 152.578 167.348 152.635C167.765 152.693 168.189 152.617 168.56 152.42Z" fill="#E0E0E0"/>
<path d="M159.68 146.59C159.13 146.21 158.58 145.83 158.01 145.46C157.16 144.91 156.29 144.38 155.4 143.88C155 143.647 154.59 143.437 154.17 143.25C153.48 142.93 153.48 142.38 154.17 141.96L240.29 92.24C240.742 91.9327 241.242 91.7029 241.77 91.56L241.95 91.63C242.807 91.9798 243.639 92.3874 244.44 92.85C245.78 93.64 247.09 94.49 248.35 95.38C248.501 95.4624 248.625 95.5858 248.709 95.736C248.792 95.8861 248.832 96.0568 248.822 96.2284C248.813 96.4 248.755 96.5653 248.655 96.7054C248.556 96.8455 248.419 96.9546 248.26 97.02L162.16 146.73C161.769 146.922 161.336 147.01 160.902 146.985C160.467 146.961 160.046 146.825 159.68 146.59Z" fill="#27DEBF"/>
<path opacity="0.4" d="M159.68 146.59C159.13 146.21 158.58 145.83 158.01 145.46C157.16 144.91 156.29 144.38 155.4 143.88C155 143.647 154.59 143.437 154.17 143.25C153.48 142.93 153.48 142.38 154.17 141.96L240.29 92.24C240.742 91.9327 241.242 91.7029 241.77 91.56L241.95 91.63C242.807 91.9798 243.639 92.3874 244.44 92.85C245.78 93.64 247.09 94.49 248.35 95.38C248.501 95.4624 248.625 95.5858 248.709 95.736C248.792 95.8861 248.832 96.0568 248.822 96.2284C248.813 96.4 248.755 96.5653 248.655 96.7054C248.556 96.8455 248.419 96.9546 248.26 97.02L162.16 146.73C161.769 146.922 161.336 147.01 160.902 146.985C160.467 146.961 160.046 146.825 159.68 146.59Z" fill="black"/>
<path d="M240.66 193.73V156.73C240.66 155.54 240.6 152.4 240.47 151.23C240.344 149.405 240.117 147.589 239.79 145.79C239.774 145.614 239.712 145.446 239.61 145.303C239.507 145.159 239.369 145.045 239.209 144.972C239.048 144.899 238.872 144.869 238.696 144.886C238.521 144.904 238.353 144.967 238.21 145.07L181.78 177.64C181.418 177.875 181.131 178.209 180.954 178.603C180.776 178.997 180.716 179.433 180.78 179.86C181.284 182.7 181.551 185.576 181.58 188.46C181.58 188.63 181.58 193.66 181.58 193.83V227.83C181.58 228.65 182.16 228.99 182.88 228.58L239.37 196.02C239.752 195.769 240.068 195.43 240.293 195.031C240.517 194.633 240.643 194.187 240.66 193.73Z" fill="#27DEBF"/>
<path opacity="0.8" d="M240.66 193.73V156.73C240.66 155.54 240.6 152.4 240.47 151.23C240.344 149.405 240.117 147.589 239.79 145.79C239.774 145.614 239.712 145.446 239.61 145.303C239.507 145.159 239.369 145.045 239.209 144.972C239.048 144.899 238.872 144.869 238.696 144.886C238.521 144.904 238.353 144.967 238.21 145.07L181.78 177.64C181.418 177.875 181.131 178.209 180.954 178.603C180.776 178.997 180.716 179.433 180.78 179.86C181.284 182.7 181.551 185.576 181.58 188.46C181.58 188.63 181.58 193.66 181.58 193.83V227.83C181.58 228.65 182.16 228.99 182.88 228.58L239.37 196.02C239.752 195.769 240.068 195.43 240.293 195.031C240.517 194.633 240.643 194.187 240.66 193.73Z" fill="white"/>
<path d="M223.42 173.7L213.56 193.46L217.14 198.15L197.09 181.02L181.56 219.08V227.84C181.56 228.66 182.14 229 182.86 228.59L239.37 196.02C239.747 195.773 240.06 195.44 240.284 195.049C240.508 194.658 240.637 194.22 240.66 193.77V188.02L223.42 173.7Z" fill="#27DEBF"/>
<path d="M202.56 226.6L249.18 199.68C249.9 199.27 250.48 199.6 250.48 200.43V206.81C250.456 207.261 250.326 207.7 250.1 208.091C249.874 208.482 249.559 208.814 249.18 209.06L202.56 236.02C201.84 236.43 201.26 236.1 201.26 235.27V228.89C201.277 228.432 201.405 227.985 201.631 227.586C201.857 227.188 202.176 226.85 202.56 226.6Z" fill="#27DEBF"/>
<path d="M192.74 246.35L259.05 208.07C259.77 207.65 260.35 207.99 260.35 208.82V210.51C260.326 210.961 260.195 211.4 259.969 211.791C259.743 212.182 259.428 212.514 259.05 212.76L192.74 251.02C192.02 251.44 191.44 251.1 191.44 250.27V248.58C191.469 248.133 191.602 247.699 191.827 247.312C192.053 246.925 192.365 246.596 192.74 246.35Z" fill="#E0E0E0"/>
<path d="M188.16 258.38L262.74 215.32C263.46 214.91 264.04 215.24 264.04 216.07V217.76C264.016 218.211 263.886 218.65 263.66 219.041C263.434 219.432 263.119 219.764 262.74 220.01L188.16 263.07C187.44 263.48 186.86 263.15 186.86 262.32V260.63C186.885 260.179 187.016 259.741 187.242 259.35C187.468 258.959 187.782 258.627 188.16 258.38Z" fill="#E0E0E0"/>
<path d="M182.9 275.5L205.9 262.22C206.61 261.81 207.19 262.15 207.19 262.97V288.1C207.167 288.55 207.038 288.988 206.814 289.379C206.59 289.77 206.277 290.103 205.9 290.35L182.9 303.63C182.19 304.04 181.61 303.71 181.61 302.88V277.75C181.633 277.3 181.762 276.862 181.986 276.471C182.21 276.08 182.523 275.747 182.9 275.5Z" fill="#27DEBF"/>
<path opacity="0.5" d="M182.9 275.5L205.9 262.22C206.61 261.81 207.19 262.15 207.19 262.97V288.1C207.167 288.55 207.038 288.988 206.814 289.379C206.59 289.77 206.277 290.103 205.9 290.35L182.9 303.63C182.19 304.04 181.61 303.71 181.61 302.88V277.75C181.633 277.3 181.762 276.862 181.986 276.471C182.21 276.08 182.523 275.747 182.9 275.5Z" fill="white"/>
<path d="M214.41 257.31L237.41 244.03C238.13 243.62 238.71 243.96 238.71 244.78V269.92C238.684 270.37 238.553 270.809 238.327 271.199C238.101 271.59 237.787 271.922 237.41 272.17L214.41 285.44C213.69 285.85 213.11 285.52 213.11 284.69V259.56C213.134 259.109 213.264 258.67 213.49 258.279C213.716 257.888 214.031 257.556 214.41 257.31Z" fill="#27DEBF"/>
<path d="M245.91 239.12L268.91 225.85C269.63 225.43 270.21 225.77 270.21 226.6V251.73C270.186 252.181 270.055 252.62 269.829 253.011C269.603 253.402 269.288 253.734 268.91 253.98L245.91 267.25C245.19 267.66 244.61 267.33 244.61 266.5V241.37C244.634 240.919 244.764 240.48 244.99 240.089C245.216 239.698 245.531 239.366 245.91 239.12Z" fill="#27DEBF"/>
<path opacity="0.3" d="M245.91 239.12L268.91 225.85C269.63 225.43 270.21 225.77 270.21 226.6V251.73C270.186 252.181 270.055 252.62 269.829 253.011C269.603 253.402 269.288 253.734 268.91 253.98L245.91 267.25C245.19 267.66 244.61 267.33 244.61 266.5V241.37C244.634 240.919 244.764 240.48 244.99 240.089C245.216 239.698 245.531 239.366 245.91 239.12Z" fill="black"/>
<path d="M265.45 270.08L189.29 314.08C188.57 314.49 187.99 314.15 187.99 313.33V311.64C188.016 311.189 188.147 310.751 188.373 310.361C188.599 309.97 188.913 309.637 189.29 309.39L265.45 265.39C266.16 264.98 266.75 265.32 266.75 266.14V267.83C266.726 268.281 266.596 268.72 266.37 269.111C266.144 269.502 265.829 269.834 265.45 270.08Z" fill="#E0E0E0"/>
<path d="M189.67 323.22L265.84 279.22C266.208 278.979 266.507 278.644 266.705 278.251C266.903 277.858 266.995 277.42 266.97 276.98C266.92 276.49 266.88 275.98 266.84 275.5C266.861 275.332 266.83 275.162 266.752 275.011C266.674 274.861 266.552 274.738 266.403 274.658C266.254 274.578 266.084 274.545 265.916 274.563C265.747 274.581 265.589 274.65 265.46 274.76L189.32 318.76C188.943 319 188.633 319.331 188.418 319.723C188.203 320.114 188.09 320.553 188.09 321C188.09 321.5 188.16 322 188.21 322.5C188.207 322.671 188.253 322.839 188.342 322.984C188.43 323.13 188.559 323.247 188.712 323.323C188.865 323.398 189.036 323.429 189.206 323.41C189.375 323.392 189.536 323.326 189.67 323.22Z" fill="#E0E0E0"/>
<path d="M231.64 308.33L185 335.26C184.644 335.487 184.368 335.822 184.214 336.215C184.059 336.609 184.034 337.041 184.14 337.45C187.754 348.534 194.988 358.081 204.68 364.56C205.065 364.784 205.5 364.908 205.946 364.921C206.392 364.933 206.833 364.833 207.23 364.63L253.91 337.68C254.066 337.618 254.2 337.51 254.294 337.371C254.388 337.232 254.438 337.068 254.438 336.9C254.438 336.732 254.388 336.568 254.294 336.429C254.2 336.29 254.066 336.182 253.91 336.12C244.227 329.639 236.998 320.096 233.38 309.02C233.338 308.841 233.253 308.675 233.133 308.535C233.013 308.396 232.861 308.288 232.69 308.22C232.519 308.153 232.335 308.127 232.152 308.146C231.969 308.165 231.793 308.228 231.64 308.33Z" fill="#27DEBF"/>
<path opacity="0.8" d="M231.64 308.33L185 335.26C184.644 335.487 184.368 335.822 184.214 336.215C184.059 336.609 184.034 337.041 184.14 337.45C187.754 348.534 194.988 358.081 204.68 364.56C205.065 364.784 205.5 364.908 205.946 364.921C206.392 364.933 206.833 364.833 207.23 364.63L253.91 337.68C254.066 337.618 254.2 337.51 254.294 337.371C254.388 337.232 254.438 337.068 254.438 336.9C254.438 336.732 254.388 336.568 254.294 336.429C254.2 336.29 254.066 336.182 253.91 336.12C244.227 329.639 236.998 320.096 233.38 309.02C233.338 308.841 233.253 308.675 233.133 308.535C233.013 308.396 232.861 308.288 232.69 308.22C232.519 308.153 232.335 308.127 232.152 308.146C231.969 308.165 231.793 308.228 231.64 308.33Z" fill="white"/>
<path opacity="0.8" d="M253.95 336.12C250.937 334.106 248.141 331.784 245.61 329.19C237.83 328.55 225.45 325.97 225.45 325.97L221.82 338.28L230.14 341.21C223.07 341.77 201.29 336.52 201.29 336.52C199.72 343.96 199.8 356.72 199.87 360.92C201.399 362.228 203.006 363.443 204.68 364.56C205.065 364.784 205.5 364.908 205.946 364.921C206.392 364.933 206.833 364.833 207.23 364.63L253.91 337.68C254.068 337.622 254.204 337.518 254.302 337.381C254.4 337.244 254.454 337.082 254.459 336.914C254.463 336.746 254.417 336.58 254.326 336.439C254.235 336.297 254.104 336.186 253.95 336.12Z" fill="#27DEBF"/>
<path opacity="0.8" d="M226.25 320.45C226.722 321.184 227.453 321.714 228.297 321.937C229.141 322.159 230.038 322.056 230.81 321.65C231.512 321.198 232.017 320.498 232.223 319.688C232.429 318.879 232.321 318.022 231.92 317.29C231.5 316.532 230.806 315.964 229.979 315.704C229.153 315.443 228.258 315.51 227.48 315.89C226.741 316.358 226.204 317.086 225.976 317.93C225.749 318.775 225.846 319.674 226.25 320.45Z" fill="#27DEBF"/>
<path d="M251.09 315.86L278.09 300.29C278.258 300.195 278.405 300.066 278.52 299.911C278.636 299.757 278.718 299.58 278.761 299.391C278.804 299.203 278.808 299.008 278.771 298.818C278.735 298.629 278.66 298.449 278.55 298.29C277.63 296.86 276.77 295.38 275.99 293.86C275.906 293.681 275.786 293.523 275.637 293.394C275.488 293.265 275.313 293.169 275.124 293.112C274.935 293.056 274.737 293.04 274.541 293.065C274.346 293.091 274.158 293.157 273.99 293.26L247.03 308.82C246.679 309.026 246.419 309.357 246.302 309.746C246.185 310.136 246.22 310.555 246.4 310.92C247.18 312.44 248.04 313.92 248.96 315.36C249.188 315.694 249.534 315.931 249.928 316.024C250.322 316.116 250.737 316.058 251.09 315.86Z" fill="#27DEBF"/>
<path d="M251.34 325.09L288.16 303.84C288.323 303.757 288.464 303.636 288.571 303.488C288.678 303.34 288.748 303.168 288.776 302.987C288.803 302.806 288.787 302.621 288.729 302.448C288.67 302.274 288.571 302.117 288.44 301.99L287.68 301.12C287.4 300.813 287.027 300.607 286.618 300.535C286.209 300.463 285.788 300.528 285.42 300.72L248.61 322.02C248.443 322.105 248.298 322.227 248.187 322.377C248.075 322.527 248 322.701 247.967 322.885C247.934 323.07 247.945 323.259 247.997 323.438C248.05 323.618 248.143 323.783 248.27 323.92C248.52 324.21 248.77 324.5 249.03 324.78C249.329 325.076 249.716 325.267 250.133 325.323C250.55 325.379 250.974 325.297 251.34 325.09Z" fill="#E0E0E0"/>
<path d="M254.21 329.76C254.55 330.047 254.883 330.327 255.21 330.6C255.569 330.856 255.991 331.008 256.431 331.038C256.871 331.068 257.31 330.975 257.7 330.77L294.56 309.53C294.72 309.462 294.857 309.352 294.958 309.211C295.059 309.07 295.119 308.904 295.131 308.732C295.144 308.559 295.108 308.386 295.028 308.232C294.949 308.078 294.828 307.95 294.68 307.86C294.32 307.58 293.98 307.29 293.68 307.01C293.338 306.742 292.927 306.577 292.495 306.534C292.063 306.492 291.627 306.573 291.24 306.77L254.38 328.02C254.216 328.091 254.075 328.205 253.97 328.349C253.865 328.493 253.8 328.662 253.783 328.84C253.766 329.017 253.796 329.196 253.871 329.358C253.946 329.52 254.063 329.659 254.21 329.76Z" fill="#E0E0E0"/>
<path d="M235.04 357.96L281.72 331.02C282.12 330.813 282.564 330.705 283.015 330.705C283.466 330.705 283.91 330.813 284.31 331.02L285.78 331.86C286.5 332.28 286.5 332.95 285.78 333.36L239.1 360.31C238.698 360.517 238.252 360.625 237.8 360.625C237.348 360.625 236.902 360.517 236.5 360.31L235.04 359.47C234.32 359.02 234.32 358.37 235.04 357.96Z" fill="#E0E0E0"/>
<path d="M222.27 168.34L268.9 141.41C269.62 140.99 270.2 141.33 270.2 142.16V148.54C270.176 148.991 270.045 149.43 269.819 149.821C269.593 150.212 269.278 150.544 268.9 150.79L222.28 177.71C221.56 178.12 220.98 177.79 220.98 176.96V170.59C221.003 170.14 221.132 169.702 221.356 169.311C221.58 168.92 221.893 168.587 222.27 168.34Z" fill="#FAFAFA"/>
<path d="M221.69 178.38C221.487 178.383 221.286 178.331 221.11 178.23C220.901 178.094 220.732 177.905 220.621 177.681C220.51 177.458 220.461 177.209 220.48 176.96V170.59C220.506 170.053 220.659 169.53 220.927 169.064C221.195 168.598 221.569 168.203 222.02 167.91L268.65 141.02C268.851 140.866 269.093 140.774 269.345 140.757C269.598 140.74 269.85 140.799 270.069 140.925C270.289 141.051 270.466 141.24 270.578 141.467C270.69 141.694 270.733 141.949 270.7 142.2V148.58C270.675 149.118 270.521 149.642 270.251 150.109C269.981 150.575 269.604 150.97 269.15 151.26L222.56 178.14C222.298 178.298 221.997 178.381 221.69 178.38ZM222.52 168.77C222.228 168.979 221.986 169.251 221.813 169.566C221.64 169.881 221.54 170.231 221.52 170.59V176.96C221.52 177.2 221.59 177.33 221.65 177.37C221.71 177.41 221.85 177.37 222.06 177.27L268.69 150.36C268.991 150.155 269.241 149.885 269.423 149.57C269.605 149.255 269.713 148.903 269.74 148.54V142.16C269.74 141.91 269.67 141.79 269.61 141.75C269.538 141.734 269.463 141.733 269.39 141.749C269.318 141.764 269.249 141.795 269.19 141.84L222.52 168.77Z" fill="#E0E0E0"/>
<path d="M222.27 182.48L268.9 155.55C269.62 155.14 270.2 155.47 270.2 156.3V162.68C270.176 163.131 270.046 163.57 269.82 163.961C269.594 164.352 269.279 164.684 268.9 164.93L222.28 191.85C221.56 192.27 220.98 191.93 220.98 191.1V184.73C221.005 184.28 221.134 183.843 221.358 183.452C221.582 183.062 221.895 182.729 222.27 182.48Z" fill="#FAFAFA"/>
<path d="M221.69 192.53C221.485 192.534 221.284 192.478 221.11 192.37C220.901 192.234 220.732 192.045 220.621 191.821C220.51 191.598 220.461 191.349 220.48 191.1V184.73C220.506 184.193 220.659 183.67 220.927 183.204C221.195 182.738 221.569 182.343 222.02 182.05L268.65 155.12C268.851 154.966 269.093 154.874 269.345 154.857C269.598 154.84 269.85 154.899 270.069 155.025C270.289 155.151 270.466 155.34 270.578 155.567C270.69 155.794 270.733 156.049 270.7 156.3V162.68C270.675 163.219 270.521 163.745 270.251 164.213C269.981 164.681 269.604 165.077 269.15 165.37L222.56 192.28C222.3 192.446 221.998 192.533 221.69 192.53ZM269.48 155.87C269.361 155.878 269.246 155.92 269.15 155.99L222.56 182.92C222.269 183.128 222.028 183.399 221.855 183.712C221.682 184.025 221.581 184.373 221.56 184.73V191.1C221.56 191.35 221.63 191.47 221.69 191.51C221.75 191.55 221.89 191.51 222.1 191.42L268.73 164.5C269.032 164.297 269.284 164.027 269.466 163.712C269.648 163.396 269.755 163.043 269.78 162.68V156.3C269.78 156.06 269.71 155.93 269.65 155.89L269.48 155.87Z" fill="#E0E0E0"/>
<path d="M103.64 358.52L112.4 353.42C112.4 353.42 115.4 334.33 112.4 317.83C108.19 294.63 92.15 286.97 86.45 289.41C80.75 291.85 79.56 298.79 90.28 312.02C96.56 319.8 103.33 336.91 103.64 358.52Z" fill="#27DEBF"/>
<g opacity="0.2">
<path d="M103.64 358.52L112.4 353.42C112.4 353.42 115.4 334.33 112.4 317.83C108.19 294.63 92.15 286.97 86.45 289.41C80.75 291.85 79.56 298.79 90.28 312.02C96.56 319.8 103.33 336.91 103.64 358.52Z" fill="black"/>
</g>
<path d="M107.56 348.69C107.424 348.675 107.299 348.606 107.213 348.5C107.126 348.393 107.086 348.256 107.1 348.12C109.61 326.25 100.3 302.57 90.23 293.18C90.1708 293.137 90.1214 293.082 90.085 293.018C90.0487 292.954 90.0262 292.884 90.019 292.811C90.0118 292.738 90.0201 292.664 90.0434 292.595C90.0667 292.525 90.1044 292.462 90.154 292.408C90.2036 292.354 90.2641 292.311 90.3315 292.282C90.3988 292.253 90.4715 292.239 90.5448 292.24C90.618 292.241 90.6902 292.258 90.7566 292.289C90.823 292.32 90.8821 292.365 90.93 292.42C101.16 302.02 110.65 326.02 108.11 348.23C108.095 348.363 108.029 348.484 107.927 348.57C107.825 348.656 107.693 348.699 107.56 348.69Z" fill="white"/>
<path d="M84.2 369.79C83.06 370.47 80.58 369.26 79.66 368.67C78.0771 367.643 76.7829 366.228 75.9 364.56C74.9394 362.655 74.5902 360.501 74.9 358.39C75.0582 357.275 75.2921 356.173 75.6 355.09L76.45 351.87C76.7923 350.83 76.9249 349.732 76.84 348.64C76.51 346.47 74.54 344.98 72.75 343.7C70.75 342.29 68.69 340.41 68.64 337.78C68.7348 335.735 69.505 333.78 70.83 332.22C72.05 330.6 73.51 329.16 74.61 327.46C75.4763 326.267 75.907 324.813 75.83 323.34C75.6915 322.442 75.3717 321.581 74.89 320.81C73.7853 319.206 72.8089 317.518 71.97 315.76C71.29 313.93 71.33 311.64 72.73 310.29C74.0078 309.3 75.6263 308.858 77.23 309.06C80.01 309.18 82.7 311.14 84.91 312.67C87.12 314.2 88.84 316.3 91.37 317.19C94.68 318.37 99.08 317.68 101.28 321.06C103.19 323.99 101.81 327.27 101.62 330.38C101.32 335.38 106.03 337.26 108.34 340.89C109.057 342.093 109.362 343.498 109.21 344.89C109.122 347.227 108.606 349.528 107.69 351.68C106.584 353.996 105.346 356.247 103.98 358.42C103.86 358.46 84.37 369.68 84.2 369.79Z" fill="#27DEBF"/>
<path d="M95.81 363.38C95.7417 363.379 95.6743 363.364 95.6117 363.337C95.5492 363.309 95.4926 363.27 95.4452 363.221C95.3978 363.171 95.3606 363.113 95.3357 363.05C95.3108 362.986 95.2987 362.918 95.3 362.85C95.68 342.2 85.43 319.65 78.21 313.19C78.1141 313.093 78.0604 312.962 78.0604 312.825C78.0604 312.688 78.1141 312.557 78.21 312.46C78.2575 312.411 78.3143 312.373 78.377 312.346C78.4396 312.32 78.507 312.306 78.575 312.306C78.643 312.306 78.7104 312.32 78.773 312.346C78.8357 312.373 78.8925 312.411 78.94 312.46C86.31 319.04 96.76 341.96 96.38 362.9C96.3673 363.039 96.3003 363.167 96.1936 363.257C96.0869 363.347 95.9491 363.391 95.81 363.38Z" fill="white"/>
<path d="M92.15 339.08C92.1011 339.095 92.0489 339.095 92 339.08C87.0894 337.852 82.0599 337.161 77 337.02C76.8638 337.012 76.7354 336.954 76.6408 336.855C76.5462 336.757 76.4923 336.626 76.49 336.49C76.4885 336.421 76.5013 336.352 76.5277 336.288C76.5541 336.224 76.5934 336.167 76.6432 336.119C76.693 336.071 76.7522 336.034 76.817 336.01C76.8819 335.986 76.951 335.976 77.02 335.98C82.178 336.12 87.3052 336.825 92.31 338.08C92.3767 338.098 92.4391 338.13 92.4934 338.173C92.5478 338.216 92.5931 338.269 92.6266 338.329C92.6601 338.39 92.6812 338.456 92.6887 338.525C92.6961 338.594 92.6898 338.664 92.67 338.73C92.6362 338.839 92.5662 338.933 92.4716 338.997C92.3771 339.06 92.2636 339.09 92.15 339.08Z" fill="white"/>
<path d="M370.64 68.64L320.79 97.38C320.359 97.6577 320 98.0336 319.743 98.4769C319.486 98.9202 319.337 99.4182 319.31 99.93V160.44C319.34 160.951 319.491 161.448 319.75 161.889C320.009 162.331 320.369 162.704 320.8 162.98L323.49 164.5C323.955 164.736 324.469 164.859 324.99 164.859C325.511 164.859 326.025 164.736 326.49 164.5L376.34 135.77C376.771 135.49 377.13 135.112 377.387 134.667C377.644 134.223 377.793 133.723 377.82 133.21V72.71C377.791 72.1999 377.642 71.7039 377.385 71.2625C377.127 70.821 376.769 70.4467 376.34 70.17L373.64 68.65C373.176 68.4122 372.663 68.2873 372.141 68.2856C371.62 68.2839 371.105 68.4053 370.64 68.64Z" fill="#27DEBF"/>
<path d="M324.97 163.63V103.13C324.997 102.617 325.146 102.117 325.403 101.673C325.66 101.228 326.019 100.85 326.45 100.57L376.3 71.84C377.12 71.37 377.78 71.75 377.78 72.69V133.19C377.753 133.703 377.604 134.203 377.347 134.647C377.09 135.092 376.731 135.47 376.3 135.75L326.45 164.48C325.63 164.95 324.97 164.57 324.97 163.63Z" fill="#27DEBF"/>
<path opacity="0.2" d="M326.45 164.48C325.984 164.711 325.47 164.831 324.95 164.831C324.43 164.831 323.916 164.711 323.45 164.48L320.8 163.02C320.367 162.748 320.006 162.377 319.747 161.937C319.487 161.496 319.338 161 319.31 160.49V99.93C319.333 99.3976 319.495 98.8805 319.78 98.43L325.41 101.68C325.139 102.117 324.987 102.617 324.97 103.13V163.63C324.97 164.49 325.56 165.02 326.45 164.48Z" fill="black"/>
<path opacity="0.4" d="M377.76 72.42C377.64 71.68 377.04 71.42 376.3 71.84L326.45 100.57C326.027 100.848 325.682 101.23 325.45 101.68L319.81 98.43C320.054 98.0182 320.398 97.6744 320.81 97.43L370.67 68.69C371.133 68.4498 371.648 68.3244 372.17 68.3244C372.692 68.3244 373.206 68.4498 373.67 68.69L376.36 70.21C376.735 70.4594 377.054 70.7851 377.295 71.1659C377.537 71.5467 377.695 71.974 377.76 72.42Z" fill="white"/>
<path d="M312.68 140.94C311.75 140.39 307.41 137.94 307.18 137.8C307.007 137.693 306.859 137.549 306.748 137.379C306.637 137.208 306.565 137.015 306.537 136.813C306.51 136.612 306.527 136.406 306.588 136.212C306.649 136.018 306.752 135.84 306.89 135.69L319.44 120.02L324.97 123.19L312.43 138.85C312.297 138.998 312.197 139.173 312.137 139.363C312.077 139.553 312.058 139.754 312.082 139.952C312.105 140.149 312.171 140.34 312.274 140.51C312.377 140.681 312.516 140.827 312.68 140.94Z" fill="#27DEBF"/>
<path opacity="0.4" d="M312.68 140.94C311.75 140.39 307.41 137.94 307.18 137.8C307.007 137.693 306.859 137.549 306.748 137.379C306.637 137.208 306.565 137.015 306.537 136.813C306.51 136.612 306.527 136.406 306.588 136.212C306.649 136.018 306.752 135.84 306.89 135.69L319.44 120.02L324.97 123.19L312.43 138.85C312.297 138.998 312.197 139.173 312.137 139.363C312.077 139.553 312.058 139.754 312.082 139.952C312.105 140.149 312.171 140.34 312.274 140.51C312.377 140.681 312.516 140.827 312.68 140.94Z" fill="white"/>
<path d="M324.97 123.21L312.43 138.87C312.248 139.049 312.121 139.276 312.066 139.525C312.01 139.774 312.028 140.033 312.117 140.273C312.206 140.512 312.362 140.72 312.566 140.872C312.771 141.024 313.015 141.114 313.27 141.13L324.97 142.4L328.56 132.52L324.97 123.21Z" fill="#27DEBF"/>
<path d="M366.37 113.18C366.27 114.661 365.994 116.124 365.55 117.54C365.159 118.813 364.633 120.04 363.98 121.2C363.41 122.213 362.714 123.151 361.91 123.99C361.251 124.697 360.481 125.291 359.63 125.75C358.7 126.36 357.585 126.625 356.48 126.5C355.837 126.367 355.26 126.013 354.85 125.5C354.61 126.01 354.36 126.5 354.1 127.05C353.82 127.605 353.485 128.131 353.1 128.62C352.663 129.175 352.17 129.685 351.63 130.14C350.969 130.685 350.248 131.151 349.48 131.53C348.661 132.014 347.702 132.205 346.76 132.07C345.934 131.881 345.215 131.375 344.76 130.66C344.147 129.693 343.739 128.611 343.56 127.48C343.296 125.905 343.205 124.305 343.29 122.71C343.352 120.944 343.57 119.188 343.94 117.46C344.269 115.911 344.748 114.397 345.37 112.94C345.91 111.655 346.631 110.452 347.51 109.37C348.264 108.42 349.207 107.636 350.28 107.07C350.635 106.821 351.037 106.646 351.461 106.555C351.886 106.464 352.324 106.459 352.75 106.54C353.304 106.782 353.759 107.205 354.04 107.74V107.2C354.058 106.74 354.185 106.291 354.41 105.89C354.581 105.522 354.86 105.215 355.21 105.01L357.35 103.91C357.467 103.834 357.607 103.802 357.746 103.818C357.885 103.835 358.014 103.899 358.11 104C358.227 104.136 358.313 104.296 358.362 104.469C358.41 104.642 358.42 104.823 358.39 105L357.88 117.79C357.817 118.128 357.834 118.475 357.929 118.805C358.025 119.135 358.196 119.438 358.43 119.69C358.641 119.832 358.89 119.908 359.145 119.908C359.4 119.908 359.649 119.832 359.86 119.69C360.485 119.332 360.99 118.796 361.31 118.15C361.787 117.19 362.056 116.141 362.1 115.07C362.2 113.97 362.27 112.82 362.32 111.64C362.37 110.46 362.37 109.37 362.32 108.37C362.29 106.576 362.021 104.793 361.52 103.07C361.202 101.858 360.5 100.781 359.52 100C358.534 99.3463 357.339 99.0858 356.17 99.27C354.456 99.5355 352.804 100.104 351.29 100.95C349.69 101.769 348.231 102.839 346.97 104.12C345.665 105.447 344.536 106.935 343.61 108.55C342.639 110.245 341.851 112.038 341.26 113.9C340.648 115.818 340.22 117.791 339.98 119.79C339.91 120.34 339.84 121.05 339.8 121.91C339.76 122.77 339.71 123.69 339.67 124.63C339.63 125.57 339.6 126.48 339.58 127.35C339.56 128.22 339.58 128.93 339.58 129.46C339.622 131.074 339.908 132.672 340.43 134.2C340.818 135.377 341.508 136.432 342.43 137.26C343.312 137.982 344.42 138.372 345.56 138.36C347.049 138.302 348.502 137.891 349.8 137.16C350.815 136.651 351.794 136.073 352.73 135.43C353.502 134.898 354.231 134.307 354.91 133.66C355.493 133.121 356.034 132.539 356.53 131.92C356.98 131.36 357.4 130.8 357.77 130.26C358.14 129.72 358.33 129.43 358.51 129.2C358.713 128.96 358.961 128.763 359.24 128.62L362.24 127.07C362.355 126.986 362.493 126.941 362.635 126.941C362.777 126.941 362.915 126.986 363.03 127.07C363.156 127.215 363.245 127.387 363.29 127.573C363.335 127.76 363.335 127.954 363.29 128.14C363.253 128.493 363.14 128.834 362.96 129.14C362.35 130.27 361.67 131.47 360.91 132.72C360.111 134.02 359.205 135.251 358.2 136.4C357.074 137.678 355.843 138.858 354.52 139.93C352.972 141.174 351.296 142.25 349.52 143.14C347.626 144.234 345.478 144.813 343.29 144.82C341.646 144.781 340.073 144.141 338.87 143.02C337.592 141.758 336.662 140.187 336.17 138.46C335.526 136.332 335.19 134.123 335.17 131.9C335.17 131.35 335.17 130.61 335.17 129.68C335.17 128.75 335.23 127.77 335.27 126.74C335.31 125.71 335.36 124.74 335.41 123.82C335.46 122.9 335.51 122.16 335.56 121.63C335.808 118.978 336.324 116.358 337.1 113.81C337.883 111.169 338.949 108.621 340.28 106.21C341.597 103.82 343.206 101.603 345.07 99.61C346.901 97.6453 349.06 96.0143 351.45 94.79C353.605 93.545 356.017 92.8127 358.5 92.65C360.197 92.5806 361.855 93.168 363.13 94.29C364.408 95.5556 365.294 97.1633 365.68 98.92C366.235 101.162 366.527 103.461 366.55 105.77C366.55 106.77 366.55 107.98 366.49 109.36C366.43 110.74 366.47 112.07 366.37 113.18ZM347.56 120.49C347.391 121.904 347.594 123.338 348.15 124.65C348.246 124.838 348.382 125.003 348.549 125.133C348.716 125.263 348.909 125.355 349.115 125.402C349.321 125.448 349.535 125.449 349.742 125.404C349.948 125.359 350.142 125.269 350.31 125.14C351.4 124.533 352.235 123.553 352.66 122.38C353.259 120.78 353.577 119.088 353.6 117.38C353.762 115.95 353.562 114.503 353.02 113.17C352.56 112.33 351.82 112.17 350.81 112.69C349.734 113.307 348.92 114.296 348.52 115.47C347.908 117.074 347.583 118.773 347.56 120.49Z" fill="#FAFAFA"/>
<path d="M399.65 188.66C406.9 188.66 410.11 189.97 412.72 196.92C415.33 203.87 422.26 219.78 422.39 224.51C422.53 229.42 406.73 244.3 407.3 244.05C407.47 243.97 402.48 235.05 402.48 235.05L411.37 224.15L406.27 209.36L399.65 188.66Z" fill="#FFB9A7"/>
<path d="M402.21 188.49C405.35 188.76 408.42 189.29 410.75 192.07C413.08 194.85 418.91 211.5 418.91 211.5C418.91 211.5 416.18 215.95 407.91 216.61L403.47 205.02L402.21 188.49Z" fill="#27DEBF"/>
<path opacity="0.4" d="M402.21 188.49C405.35 188.76 408.42 189.29 410.75 192.07C413.08 194.85 418.91 211.5 418.91 211.5C418.91 211.5 416.18 215.95 407.91 216.61L403.47 205.02L402.21 188.49Z" fill="black"/>
<path d="M408.39 350.54C408.83 350.96 408.92 351.37 408.9 352.92C408.88 354.47 409.54 356.2 408.75 357.64C408.15 358.72 405.12 359.46 403.58 358.64C402.242 357.763 401.045 356.687 400.03 355.45C399.083 354.361 398.043 353.357 396.92 352.45C395.61 351.45 394.1 350.83 392.73 349.94C391.665 349.25 390.771 348.327 390.114 347.241C389.458 346.154 389.056 344.934 388.94 343.67C388.858 342.842 389.029 342.009 389.43 341.28C389.757 340.892 390.186 340.603 390.668 340.445C391.15 340.288 391.667 340.269 392.16 340.39C393.63 340.62 398.63 343.39 399.79 344.22C401.24 345.23 407.93 350.1 408.39 350.54Z" fill="#263238"/>
<path d="M401.13 342.53C401.149 343.065 401.118 343.6 401.04 344.13C400.99 345.24 396.31 342.64 394.39 342.89H394.34C392.56 343.75 394.04 346.24 395.7 347.52C397.36 348.8 401.89 352.13 402.65 352.69C405.09 354.6 408.02 353.05 408.15 352.05C408.36 349.43 408.22 346.67 408.65 342.5L401.13 342.53Z" fill="#FFB9A7"/>
<path d="M380.74 362.21C381.61 362.21 382 365.05 382.16 367.21C382.28 368.91 382.92 371.67 382.32 372.92C381.72 374.17 379.44 374.92 375.91 374.87C373.63 374.82 370.05 376.33 367.59 377.66C365.13 378.99 362.32 379 359.66 378.66C356.53 378.25 353.3 376.39 352.81 375.08C352.32 373.77 352.98 373.16 360.42 370.08C360.49 370.08 368.26 366.66 371.89 362.75L380.74 362.21Z" fill="#263238"/>
<path d="M381.63 356.51H372.42C372.31 358.67 372.14 360.79 371.89 362.84C368.26 366.75 360.49 370.14 360.42 370.17C359.42 370.59 358.5 370.96 357.72 371.3C357.51 372 357.78 373.12 361.07 373.66C365.48 374.4 377.39 365.92 380.19 363.87C380.401 363.731 380.605 363.581 380.8 363.42C380.93 361.38 381.23 359.02 381.63 356.51Z" fill="#FFB9A7"/>
<path d="M408.8 343.22C409.8 332.54 411.37 319.27 411.37 314.14C411.447 309.261 410.964 304.389 409.93 299.62C409.93 299.62 411.57 278.84 411.93 267.1C412.69 244.92 413.15 243.91 408.93 232.25C408.93 232.25 374.56 228.99 373.29 243.61C371.72 261.82 370.84 292.31 370.88 300.98C370.88 307.44 371.65 314.44 372.01 329.08C372.19 336.72 371.88 346.78 372.1 356.47C373.74 359.17 380.99 357.97 382.1 356.67C383.85 345.47 387.1 330.38 387.78 324.45C388.234 319.217 388.019 313.948 387.14 308.77C387.14 308.77 391.14 277.77 391.81 273.03C392.832 278.02 393.417 283.089 393.56 288.18C393.56 290.24 394.87 296.92 396.05 308.54C396.59 313.86 399.05 329.38 400.72 342.54C401.92 344.58 407.67 345.24 408.8 343.22Z" fill="#455A64"/>
<path opacity="0.15" d="M391.81 273.02L394.46 258.02C398.976 257.322 403.131 255.141 406.27 251.82C406.27 251.82 404.68 257.82 396.89 259.89L393.78 273.52L393.26 285.94L391.81 273.02Z" fill="black"/>
<path d="M386.58 182.88L387.62 196.52L398.06 195.75L397.32 180.62L386.58 182.88Z" fill="#FFB9A7"/>
<path d="M386.99 150.94C385.221 150.706 383.422 150.9 381.744 151.508C380.066 152.115 378.559 153.117 377.35 154.43C371.21 161.34 377.94 166.43 377.94 166.43L386.99 150.94Z" fill="#263238"/>
<path d="M376.32 167.87C376.32 167.87 373.65 171.87 374 172.31C374.612 172.714 375.288 173.012 376 173.19L376.32 167.87Z" fill="#F29E8F"/>
<path d="M384.47 155.18C381.88 156.5 377.42 158.95 376.24 168.46C375.04 178.22 377.24 181.61 378.53 182.9C379.43 183.76 384.06 184.09 386.48 183.34C389.48 182.41 396.07 179.19 399.16 174.16C402.79 168.25 403.55 160.35 399.39 157.24C393.56 152.87 386.66 154.02 384.47 155.18Z" fill="#FFB9A7"/>
<path d="M383.18 166.4C377.77 163.65 379.18 156.47 379.18 156.47C379.18 156.47 386.9 145.47 401.18 152.57C406.11 155.04 409.07 160.65 408.95 167.22C408.95 169.251 408.55 171.262 407.772 173.139C406.995 175.015 405.855 176.72 404.418 178.155C402.982 179.591 401.276 180.73 399.399 181.506C397.522 182.282 395.511 182.681 393.48 182.68C391.093 182.68 388.804 181.732 387.116 180.044C385.428 178.356 384.48 176.067 384.48 173.68V173.08L384.94 173.23C385.679 173.405 386.45 173.394 387.183 173.197C387.916 172.999 388.589 172.622 389.14 172.1C391.51 170.1 391.8 166.1 388.8 165.04C385.8 163.98 384.23 167.51 384.23 167.51L383.07 170.7C382.79 170.598 382.532 170.442 382.312 170.241C382.091 170.04 381.913 169.797 381.787 169.527C381.661 169.257 381.589 168.964 381.576 168.666C381.562 168.368 381.608 168.07 381.71 167.79C381.829 167.459 382.024 167.161 382.279 166.92C382.535 166.678 382.843 166.5 383.18 166.4Z" fill="#263238"/>
<path d="M384.56 180.52C386.769 180.52 388.56 178.729 388.56 176.52C388.56 174.311 386.769 172.52 384.56 172.52C382.351 172.52 380.56 174.311 380.56 176.52C380.56 178.729 382.351 180.52 384.56 180.52Z" fill="#263238"/>
<path d="M407.56 178.52C409.769 178.52 411.56 176.729 411.56 174.52C411.56 172.311 409.769 170.52 407.56 170.52C405.351 170.52 403.56 172.311 403.56 174.52C403.56 176.729 405.351 178.52 407.56 178.52Z" fill="#263238"/>
<path d="M395.56 185.52C397.769 185.52 399.56 183.729 399.56 181.52C399.56 179.311 397.769 177.52 395.56 177.52C393.351 177.52 391.56 179.311 391.56 181.52C391.56 183.729 393.351 185.52 395.56 185.52Z" fill="#263238"/>
<path d="M389.56 185.52C392.321 185.52 394.56 183.281 394.56 180.52C394.56 177.759 392.321 175.52 389.56 175.52C386.799 175.52 384.56 177.759 384.56 180.52C384.56 183.281 386.799 185.52 389.56 185.52Z" fill="#263238"/>
<path d="M402.56 184.52C405.321 184.52 407.56 182.281 407.56 179.52C407.56 176.759 405.321 174.52 402.56 174.52C399.799 174.52 397.56 176.759 397.56 179.52C397.56 182.281 399.799 184.52 402.56 184.52Z" fill="#263238"/>
<path d="M405.56 222.02C410.68 205.51 409.99 203.73 408.99 196.67C408.36 192.18 406.36 189.41 401.81 188.36L397.73 187.92C398.05 190.92 388.3 191.27 387.11 189.06L379.51 189.19C377.36 189.95 372.41 200.6 371.61 207.71C370.96 213.48 375.48 218.49 375.48 218.49C375.65 220.78 374.02 225.39 374.02 225.39C374.02 225.39 373.21 239.34 372.75 246.49C372.75 246.49 376.75 251.91 394.34 250.4C406.34 249.4 412.65 243.6 412.65 243.6C411.542 236.053 409.143 228.754 405.56 222.02Z" fill="#263238"/>
<path d="M377.82 228.02C378.89 226.02 380.82 205.02 381.54 197.84L370.21 203.62L367.69 224.02C367.07 225.37 361.91 236.3 358.27 240.42C357.618 241.141 356.726 241.599 355.76 241.71C353.16 242.02 351.76 242.93 349.5 243.8C347.74 244.48 346.59 244.31 346.56 244.8C346.595 245.331 346.826 245.83 347.209 246.2C347.591 246.57 348.098 246.784 348.63 246.8C349.824 246.877 351.022 246.81 352.2 246.6C350.643 248.005 348.887 249.175 346.99 250.07C342.56 252.19 340.06 254.07 345.71 256.82C349.25 258.52 354.64 257.43 360.99 250.82C362.82 248.93 365.25 245.82 367.3 243.16C372.17 236.96 374.87 233.55 377.82 228.02Z" fill="#FFB9A7"/>
<path d="M369.56 201.77C370.01 195.44 372.32 188.96 379.46 189.2C381.97 191.95 382.28 196.07 381.71 202.48C381.23 207.91 380.27 217.86 380.27 217.86C377.93 219.32 370.33 218.44 367.78 216.43L369.56 201.77Z" fill="#27DEBF"/>
<path opacity="0.4" d="M369.56 201.77C370.01 195.44 372.32 188.96 379.46 189.2C381.97 191.95 382.28 196.07 381.71 202.48C381.23 207.91 380.27 217.86 380.27 217.86C377.93 219.32 370.33 218.44 367.78 216.43L369.56 201.77Z" fill="black"/>
</g>
<defs>
<clipPath id="clip0_3_109">
<rect width="471.22" height="451.07" fill="white"/>
</clipPath>
</defs>
</svg>
