<svg width="320" height="257" viewBox="0 0 320 257" fill="none" xmlns="http://www.w3.org/2000/svg">
<path d="M0 0H320V174C320 185.046 311.046 194 300 194H20C8.95431 194 0 185.046 0 174V0Z" fill="#DADADA"/>
<g clip-path="url(#clip0_31_2)">
<path d="M170.339 256.429L116.928 225.716C115.612 224.959 115.612 223.73 116.928 222.972L174.818 189.686C176.135 188.928 178.272 188.928 179.589 189.686L233 220.399C234.317 221.156 234.317 222.385 233 223.142L175.11 256.429C173.794 257.187 171.656 257.187 170.339 256.429Z" fill="#BCBCBC"/>
<path d="M84.3366 243.015L61.9476 230.138C60.686 229.414 60.686 228.234 61.9476 227.51L192.177 152.629C193.439 151.905 195.488 151.905 196.75 152.629L219.139 165.501C220.401 166.225 220.401 167.405 219.139 168.129L88.9092 243.015C87.6476 243.739 85.5982 243.739 84.3366 243.015Z" fill="#BCBCBC"/>
<path d="M164.814 217.519L184.063 206.436C186.046 205.295 187.037 203.802 187.037 202.305C187.037 200.807 187.049 199.638 187.049 199.638L167.078 188.424C166.02 187.815 165.161 186.333 165.161 185.121V164.672L131.544 184.018V204.466C131.544 205.684 132.404 207.16 133.461 207.769L150.452 217.519C154.413 219.801 160.847 219.801 164.814 217.519Z" fill="#263238"/>
<path d="M139.609 208.647V211.303L133.45 207.764C132.398 207.16 131.539 205.684 131.539 204.461V184.018L137.946 180.336C138.078 181.955 138.221 183.628 138.353 185.263L133.863 187.853V203.133C133.863 204.357 134.717 205.832 135.775 206.436L139.609 208.647Z" fill="black"/>
<path d="M133.858 203.133C133.858 204.351 134.717 205.827 135.775 206.436L150.44 214.847C154.407 217.129 160.842 217.129 164.814 214.847L184.068 203.764C188.035 201.482 188.035 197.784 184.068 195.501L169.392 187.079C168.334 186.47 167.475 184.989 167.475 183.777V168.496L133.858 187.842V203.133Z" fill="#455A64"/>
<path d="M173.298 189.34L169.397 187.096C168.339 186.487 167.48 185.005 167.48 183.793V168.513L133.863 187.858V203.139C133.863 204.357 134.723 205.832 135.781 206.441L139.615 208.647L173.298 189.34Z" fill="#37474F"/>
<path d="M187.043 199.638C187.043 199.638 187.043 200.807 187.043 202.305C187.043 203.802 186.046 205.289 184.068 206.436L164.819 217.513C162.919 218.616 160.45 219.165 157.96 219.209V216.553C160.45 216.52 162.919 215.95 164.819 214.858L184.068 203.769C186.046 202.634 187.043 201.136 187.043 199.638Z" fill="#37474F"/>
<path d="M79.8797 226.089C81.1193 226.802 83.1962 226.764 84.5239 226.001C101.051 216.498 198.012 160.749 214.539 151.247C215.861 150.484 216.935 148.635 216.935 147.115V45.5593C216.935 44.0395 215.927 42.229 214.688 41.5157C213.448 40.8025 211.371 40.8409 210.043 41.6035L80.0285 116.352C78.7063 117.115 77.632 118.964 77.632 120.484V222.045C77.632 223.565 78.6402 225.376 79.8797 226.089Z" fill="#455A64"/>
<path d="M84.5239 226.001L214.539 151.247C215.861 150.484 216.935 148.635 216.935 147.115V45.5538C216.935 44.0341 215.861 43.4141 214.539 44.1767L84.5239 118.931C83.2017 119.694 82.1274 121.543 82.1274 123.062V224.624C82.1274 226.144 83.2017 226.758 84.5239 226.001Z" fill="#37474F"/>
<path d="M84.1713 228.722C82.8436 229.304 81.0091 229.282 79.8797 228.635C78.6402 227.916 77.632 226.111 77.632 224.58V218.227L82.1219 220.816V227.17C82.1219 228.558 83.0089 229.183 84.1713 228.722Z" fill="#37474F"/>
<path d="M82.1219 220.816L82.1275 227.164C82.1275 228.684 83.2017 229.304 84.5239 228.541L214.539 153.787C215.861 153.024 216.935 151.175 216.935 149.656V143.286L82.1219 220.816Z" fill="#455A64"/>
<path d="M86.6174 208.85V124.544C86.6174 123.633 87.2619 122.519 88.0552 122.064L210.996 51.3805C211.79 50.9252 212.434 51.2928 212.434 52.209L212.44 136.515C212.44 137.426 211.795 138.54 211.002 138.995L88.0552 209.679C87.2619 210.134 86.6174 209.766 86.6174 208.85Z" fill="#27DEBF"/>
<path d="M86.6174 208.85V124.544C86.6174 123.633 87.2619 122.519 88.0552 122.064L210.996 51.3805C211.79 50.9252 212.434 51.2928 212.434 52.209L212.44 136.515C212.44 137.426 211.795 138.54 211.002 138.995L88.0552 209.679C87.2619 210.134 86.6174 209.766 86.6174 208.85Z" fill="#27DEBF"/>
<path opacity="0.8" d="M86.6174 208.85V124.544C86.6174 123.633 87.2619 122.519 88.0552 122.064L210.996 51.3805C211.79 50.9252 212.434 51.2928 212.434 52.209L212.44 136.515C212.44 137.426 211.795 138.54 211.002 138.995L88.0552 209.679C87.2619 210.134 86.6174 209.766 86.6174 208.85Z" fill="white"/>
<path d="M149.526 184.424C148.43 185.055 147.543 186.586 147.543 187.842C147.543 189.098 148.43 189.609 149.526 188.983C150.622 188.352 151.509 186.822 151.509 185.565C151.509 184.303 150.622 183.798 149.526 184.424Z" fill="#27DEBF"/>
<path d="M82.8326 120.703C82.4029 121.455 82.1385 122.3 82.1274 123.062V220.816L77.6375 218.227V120.478C77.6375 119.716 77.913 118.871 78.3427 118.119L82.8326 120.703Z" fill="#263238"/>
<path d="M111.656 129.427L185.137 87.1748L188.079 88.8647C188.839 89.3036 189.461 90.3735 189.461 91.2513V145.233C189.461 146.106 188.839 147.181 188.079 147.62L117.364 188.281C116.603 188.72 115.358 188.72 114.598 188.281L113.039 187.387C112.279 186.948 111.656 185.878 111.656 185V129.427Z" fill="#27DEBF"/>
<path opacity="0.2" d="M111.656 129.427L185.137 87.1748L188.079 88.8647C188.839 89.3036 189.461 90.3735 189.461 91.2513V145.233C189.461 146.106 188.839 147.181 188.079 147.62L117.364 188.281C116.603 188.72 115.358 188.72 114.598 188.281L113.039 187.387C112.279 186.948 111.656 185.878 111.656 185V129.427Z" fill="black"/>
<path d="M184.735 82.429L185.038 82.2644L183.897 81.606C183.798 81.5511 183.699 81.5017 183.594 81.4633L151.25 69.5301C150.396 69.2119 149.283 69.5685 148.766 70.3147L112.593 122.925C112.075 123.677 111.662 125.021 111.662 125.926C111.662 127.43 111.662 129.421 111.662 129.421L112.786 130.069L185.148 87.1693V83.6744C185.137 83.2574 184.982 82.813 184.735 82.429Z" fill="#27DEBF"/>
<path opacity="0.1" d="M150.264 70.567C150.121 70.6768 149.994 70.8139 149.889 70.9621L113.711 123.573C113.447 123.962 113.204 124.511 113.039 125.076L111.915 124.428C111.998 124.154 112.097 123.885 112.207 123.633C112.213 123.622 112.213 123.616 112.218 123.611C112.268 123.501 112.317 123.397 112.372 123.293C112.383 123.276 112.389 123.26 112.4 123.243C112.461 123.128 112.527 123.018 112.593 122.925L148.766 70.3146C148.821 70.2324 148.881 70.1665 148.947 70.0952C149.008 70.0348 149.074 69.9745 149.14 69.9196L150.264 70.567Z" fill="black"/>
<path opacity="0.35" d="M185.021 82.2589C184.922 82.1985 184.817 82.1491 184.713 82.1107L152.369 70.172C151.685 69.9196 150.837 70.0952 150.264 70.567L149.14 69.9196C149.719 69.4533 150.562 69.2722 151.25 69.5246L183.589 81.4578C183.693 81.4962 183.792 81.5456 183.892 81.606L185.021 82.2589Z" fill="white"/>
<path d="M112.394 123.243C112.455 123.128 112.521 123.024 112.587 122.925C112.521 123.024 112.461 123.128 112.394 123.243Z" fill="#27DEBF"/>
<path d="M148.947 70.0952C149.008 70.0348 149.074 69.9745 149.14 69.9196C149.074 69.98 149.008 70.0348 148.947 70.0952Z" fill="#27DEBF"/>
<path d="M111.91 124.434C111.992 124.16 112.091 123.885 112.202 123.638C112.097 123.885 111.998 124.154 111.91 124.434Z" fill="#27DEBF"/>
<path d="M112.218 123.611C112.268 123.501 112.317 123.397 112.372 123.298C112.317 123.397 112.262 123.501 112.218 123.611Z" fill="#27DEBF"/>
<path opacity="0.2" d="M112.207 123.633C112.213 123.628 112.213 123.617 112.218 123.611C112.213 123.617 112.207 123.628 112.207 123.633Z" fill="black"/>
<path opacity="0.2" d="M112.372 123.298C112.383 123.282 112.389 123.26 112.4 123.243C112.389 123.26 112.378 123.282 112.372 123.298Z" fill="black"/>
<path d="M149.884 70.9621L113.711 123.573C113.193 124.324 112.78 125.668 112.78 126.574C112.78 128.077 112.78 130.069 112.78 130.069L186.261 87.8167V84.3273C186.261 83.4165 185.566 82.4235 184.713 82.1107L152.374 70.1775C151.515 69.8593 150.402 70.2159 149.884 70.9621Z" fill="#27DEBF"/>
<path opacity="0.05" d="M186.261 84.3273C186.261 83.9103 186.112 83.4769 185.869 83.0983L113.039 125.076C113.039 125.076 113.034 125.081 113.034 125.087C112.879 125.608 112.78 126.14 112.78 126.574C112.78 128.077 112.78 130.069 112.78 130.069L186.261 87.8167V84.3273Z" fill="black"/>
<path d="M144.248 136.729C145.714 140.18 146.501 143.928 146.501 147.801V149.935L119.055 164.173V164.179H119.049V157.562L119.055 131.347C119.055 130.705 119.127 130.074 119.27 129.465C119.27 129.465 119.27 129.465 119.27 129.46C119.325 129.218 119.397 128.982 119.468 128.746C119.507 128.631 119.551 128.51 119.589 128.395C119.716 128.05 119.876 127.709 120.052 127.386C120.344 126.843 120.702 126.332 121.11 125.871C121.226 125.734 121.352 125.603 121.479 125.476C121.611 125.35 121.743 125.224 121.881 125.103C122.294 124.736 122.746 124.418 123.236 124.132C125.853 122.623 128.982 122.623 131.605 124.132C131.605 124.132 132.09 123.935 132.982 123.595C137.042 126.107 140.342 129.553 142.667 133.553C143.257 134.579 143.785 135.638 144.248 136.729Z" fill="#E0E0E0"/>
<path d="M232.394 220.838L172.73 255.217V251.991L232.388 217.607L232.394 220.838Z" fill="#F5F5F5"/>
<path d="M144.248 136.729C143.785 135.638 143.257 134.579 142.667 133.553C142.232 132.801 141.764 132.071 141.257 131.363C141.119 131.166 140.976 130.968 140.827 130.776C140.695 130.595 140.563 130.42 140.425 130.25C140.309 130.102 140.193 129.953 140.072 129.811C140.034 129.761 139.995 129.712 139.957 129.668C139.808 129.493 139.659 129.317 139.505 129.141C139.439 129.059 139.373 128.982 139.295 128.906C139.18 128.768 139.053 128.631 138.932 128.5C138.656 128.198 138.37 127.901 138.078 127.622C137.913 127.452 137.747 127.287 137.577 127.133C137.527 127.078 137.477 127.035 137.428 126.991C137.274 126.848 137.119 126.705 136.965 126.568C136.783 126.404 136.601 126.245 136.414 126.091C136.26 125.959 136.111 125.833 135.951 125.707C135.88 125.641 135.803 125.581 135.72 125.52C135.544 125.378 135.362 125.24 135.18 125.103C134.949 124.922 134.712 124.752 134.469 124.582C134.227 124.407 133.979 124.236 133.731 124.077C133.483 123.913 133.235 123.754 132.982 123.595C132.932 123.562 132.888 123.534 132.839 123.507C132.624 123.375 132.409 123.249 132.194 123.123C132.001 123.013 131.803 122.909 131.61 122.815C131.269 122.651 130.927 122.508 130.58 122.382C130.194 122.245 129.798 122.135 129.412 122.047C129.28 122.02 129.153 121.992 129.021 121.971C128.492 121.883 127.969 121.839 127.445 121.839C127.302 121.839 127.164 121.844 127.021 121.85C126.812 121.855 126.602 121.872 126.399 121.899C126.283 121.91 126.167 121.927 126.052 121.943C125.98 121.949 125.903 121.96 125.826 121.976C125.738 121.987 125.655 122.003 125.567 122.025C125.556 122.025 125.545 122.025 125.534 122.031C125.407 122.058 125.275 122.091 125.148 122.119C125.049 122.141 124.955 122.168 124.856 122.201C124.806 122.212 124.757 122.228 124.707 122.245C124.603 122.272 124.498 122.305 124.393 122.344C124.112 122.431 123.837 122.541 123.567 122.662C123.402 122.733 123.236 122.815 123.071 122.898C123.022 122.92 122.972 122.942 122.928 122.975C122.84 123.018 122.746 123.068 122.658 123.123C122.57 123.172 122.487 123.232 122.399 123.282C122.085 123.468 121.776 123.688 121.485 123.913C121.473 123.935 121.451 123.94 121.44 123.951C121.292 124.072 121.143 124.193 120.994 124.33C120.994 124.33 120.994 124.33 120.989 124.335C120.884 124.428 120.779 124.527 120.68 124.626C120.62 124.681 120.564 124.741 120.509 124.796C120.239 125.076 119.981 125.383 119.744 125.696C119.644 125.828 119.551 125.959 119.463 126.096C119.352 126.256 119.253 126.415 119.154 126.585C119.154 126.59 119.149 126.596 119.149 126.607C119.049 126.766 118.961 126.93 118.879 127.1C118.763 127.325 118.658 127.55 118.565 127.792C118.521 127.901 118.471 128.017 118.432 128.137C118.41 128.187 118.394 128.242 118.377 128.291C118.317 128.467 118.267 128.642 118.218 128.823C118.168 128.993 118.124 129.174 118.091 129.35C118.091 129.355 118.085 129.366 118.091 129.372C118.063 129.487 118.036 129.608 118.019 129.734C118.008 129.778 118.003 129.827 117.997 129.871C117.981 129.992 117.959 130.107 117.948 130.222C117.931 130.376 117.915 130.535 117.909 130.694C117.893 130.914 117.887 131.128 117.887 131.353L117.876 157.562H120.708L120.713 131.353C120.713 128.933 121.964 126.766 124.068 125.559C126.167 124.352 128.674 124.352 130.778 125.564C135.511 128.28 139.312 132.521 141.516 137.536L144.876 138.331C144.678 137.794 144.469 137.256 144.248 136.729Z" fill="#EBEBEB"/>
<path d="M187.594 145.952C187.572 145.991 187.55 146.024 187.517 146.062L156.897 136.395C154.49 135.33 151.674 136.197 150.281 138.425L117.545 186.882L116.333 187.579L116.322 187.584C115.953 187.787 115.628 187.815 115.386 187.688L149.052 137.744C150.451 135.517 153.272 134.65 155.674 135.709L187.594 145.952Z" fill="#27DEBF"/>
<path opacity="0.4" d="M147.267 143.176L147.344 143.11L117.545 186.876L116.333 187.573L116.322 187.579C115.959 187.782 115.628 187.804 115.386 187.683L146.088 142.474L147.267 143.176Z" fill="white"/>
<path opacity="0.4" d="M187.599 145.952C187.577 145.991 187.555 146.024 187.522 146.062L156.897 136.389C154.495 135.325 151.68 136.192 150.281 138.419L149.069 137.717C150.468 135.5 153.278 134.644 155.68 135.698L187.599 145.952Z" fill="white"/>
<path d="M189.434 90.9057H189.428C189.362 90.5106 189.153 90.4009 188.883 90.5874C188.778 90.6588 188.657 90.7795 188.53 90.9496L188.376 91.1635L158.159 136.916L153.647 143.176C153.14 143.889 152.027 144.301 151.162 144.103L147.267 143.182L117.534 132.28C117.32 132.23 117.116 132.225 116.928 132.258C116.851 132.274 116.774 132.296 116.703 132.329L117.821 131.682L146.325 142.084L150.077 143.417C150.936 143.62 152.049 143.209 152.561 142.49L157.073 136.236L187.44 90.2692C187.539 90.1321 187.66 90.0333 187.781 89.9565L185.153 88.4477L186.255 87.8167L188.073 88.8592C188.74 89.2487 189.296 90.1101 189.434 90.9057Z" fill="#27DEBF"/>
<path opacity="0.4" d="M158.159 136.91L153.647 143.171C153.14 143.884 152.027 144.295 151.162 144.098L147.267 143.176L147.344 143.11L147.532 142.814L150.082 143.417C150.942 143.62 152.055 143.209 152.567 142.49L157.035 136.301L158.159 136.91Z" fill="white"/>
<path opacity="0.1" d="M188.079 88.8592L186.261 87.8167L185.159 88.4477L187.787 89.9565L187.792 89.962H187.787C187.654 90.0443 187.539 90.1485 187.445 90.2747L157.079 136.236L157.035 136.296V136.301L158.159 136.91L188.376 91.158L188.53 90.9441C188.657 90.774 188.778 90.6533 188.883 90.582C189.153 90.3954 189.362 90.5051 189.428 90.9002H189.434C189.296 90.1046 188.74 89.2432 188.079 88.8592Z" fill="black"/>
<path d="M118.14 133.158L111.656 129.427V185C111.656 185.872 112.279 186.948 113.039 187.387L114.598 188.281C115.358 188.72 116.603 188.72 117.364 188.281L118.14 187.831V133.158Z" fill="#27DEBF"/>
<path opacity="0.15" d="M118.14 133.158L111.656 129.427V185C111.656 185.872 112.279 186.948 113.039 187.387L114.598 188.281C115.358 188.72 116.603 188.72 117.364 188.281L118.14 187.831V133.158Z" fill="black"/>
<path d="M188.376 91.1635V144.559C188.376 145.009 188.216 145.513 187.946 145.952C187.732 146.314 187.451 146.638 187.137 146.852L187.087 146.885C187.054 146.907 187.026 146.929 186.993 146.945L116.278 187.601L116.267 187.606C116.174 187.661 116.086 187.705 115.997 187.732C115.986 187.656 115.981 187.573 115.981 187.485V133.498C115.981 132.625 116.67 132.077 117.534 132.28L147.267 143.182L151.162 144.103C152.027 144.301 153.14 143.889 153.647 143.176L158.159 136.916L188.376 91.1635Z" fill="#455A64"/>
<path d="M189.461 91.2513V145.233C189.461 145.689 189.296 146.188 189.032 146.627C188.811 146.989 188.536 147.313 188.222 147.532L188.167 147.56C188.134 147.582 188.112 147.604 188.079 147.62L117.364 188.275L117.353 188.281C116.984 188.489 116.653 188.517 116.411 188.391C116.196 188.281 116.047 188.056 115.997 187.732C115.986 187.655 115.981 187.573 115.981 187.485V133.498C115.981 132.625 116.67 132.077 117.534 132.28L147.267 143.182L151.162 144.103C152.027 144.301 153.14 143.889 153.647 143.176L158.159 136.916L188.376 91.1635L188.53 90.9496C189.043 90.2418 189.461 90.3735 189.461 91.2513Z" fill="#27DEBF"/>
<path d="M188.079 147.62C188.112 147.604 188.139 147.582 188.167 147.56L188.222 147.527C188.536 147.307 188.811 146.984 189.032 146.627C189.291 146.194 189.456 145.7 189.461 145.255L158.164 136.91L179.126 152.767L188.079 147.62Z" fill="#27DEBF"/>
<path opacity="0.2" d="M188.079 147.62C188.112 147.604 188.139 147.582 188.167 147.56L188.222 147.527C188.536 147.307 188.811 146.984 189.032 146.627C189.291 146.194 189.456 145.7 189.461 145.255L158.164 136.91L179.126 152.767L188.079 147.62Z" fill="black"/>
<path d="M115.981 187.48C115.981 187.935 116.146 188.248 116.411 188.385C116.653 188.511 116.984 188.484 117.353 188.281L117.364 188.275L141.708 174.279L147.267 143.176L115.975 186.586V187.48H115.981Z" fill="#27DEBF"/>
<path opacity="0.15" d="M150.27 138.414L116.411 188.385C116.146 188.248 115.981 187.935 115.981 187.48V186.586L149.058 137.733C149.058 137.728 149.063 137.722 149.069 137.717L150.27 138.414Z" fill="black"/>
<path d="M189.032 146.627C188.811 146.989 188.536 147.313 188.222 147.527L188.167 147.56L117.364 188.275L117.353 188.281C116.984 188.489 116.653 188.517 116.411 188.385L150.275 138.403C151.68 136.17 154.512 135.303 156.93 136.367L189.032 146.627Z" fill="#27DEBF"/>
<path d="M189.032 146.627C188.817 146.989 188.536 147.313 188.222 147.527L188.172 147.56L117.364 188.275L117.353 188.281C116.989 188.484 116.658 188.511 116.411 188.385L117.353 186.893L186.938 146.874L186.993 146.841C187.274 146.644 187.528 146.364 187.726 146.051L189.032 146.627Z" fill="#27DEBF"/>
<path opacity="0.15" d="M111.915 124.428L113.039 125.076C112.879 125.603 112.78 126.14 112.78 126.579C112.78 128.083 112.78 130.069 112.78 130.069L111.656 129.421C111.656 129.421 111.656 127.43 111.656 125.926C111.656 125.493 111.755 124.955 111.915 124.428Z" fill="black"/>
<path d="M117.826 131.682L116.703 132.329L115.568 131.676L112.775 130.074L113.86 129.432L117.826 131.682Z" fill="#27DEBF"/>
<path opacity="0.1" d="M117.876 131.704L113.865 129.432L112.78 130.074L115.573 131.676L116.708 132.329L116.719 132.324C116.785 132.296 116.857 132.274 116.934 132.258C117.121 132.225 117.325 132.23 117.54 132.28L119.799 133.108L145.752 142.622L146.16 142.024L117.876 131.704Z" fill="black"/>
<path d="M160.809 245.001C152.071 239.981 146.639 230.615 146.639 220.564V147.905C146.639 144.043 145.873 140.285 144.369 136.729C143.907 135.637 143.367 134.557 142.772 133.52C140.238 129.152 136.579 125.509 132.194 122.991C130.668 122.113 129.021 121.663 127.302 121.663C126.707 121.663 126.112 121.718 125.523 121.828L130.178 119.156L156.39 104.084L182.255 89.117L182.338 89.0677C183.748 88.2556 185.346 87.8277 186.96 87.8277C188.58 87.8277 190.134 88.2502 191.577 89.0786C195.874 91.5476 199.466 95.1193 201.951 99.4098C204.435 103.695 205.746 108.572 205.746 113.521V186.174C205.746 196.418 211.283 205.964 220.191 211.094L231.7 217.716L172.593 251.782L160.809 245.001Z" fill="white"/>
<path d="M186.96 87.5589V88.1075C188.53 88.1075 190.04 88.5135 191.439 89.3201C195.698 91.7671 199.251 95.3059 201.714 99.5525C204.171 103.794 205.471 108.627 205.471 113.527V186.174C205.471 196.516 211.057 206.156 220.053 211.33L231.154 217.716L172.598 251.464L160.952 244.765C152.297 239.794 146.92 230.522 146.92 220.564V147.905C146.92 144.01 146.149 140.213 144.628 136.625C144.16 135.522 143.62 134.436 143.014 133.383C140.452 128.971 136.761 125.301 132.337 122.755C130.767 121.85 129.076 121.394 127.308 121.394C127.148 121.394 126.983 121.4 126.823 121.405L130.316 119.397L156.528 104.326L182.404 89.353L182.465 89.3146C183.837 88.5245 185.39 88.1075 186.955 88.1075V87.5589M186.96 87.5589C185.269 87.5589 183.627 88.0143 182.195 88.8372L182.118 88.8866L156.252 103.848L130.04 118.92L122.939 123.002C124.278 122.316 125.771 121.943 127.308 121.943C128.894 121.943 130.525 122.349 132.062 123.232C136.491 125.778 140.067 129.399 142.535 133.657C143.13 134.688 143.659 135.742 144.121 136.839C145.581 140.29 146.369 144.037 146.369 147.905V220.564C146.369 230.741 151.823 240.151 160.676 245.237L172.598 252.095L232.256 217.711L220.334 210.853C211.481 205.761 206.027 196.352 206.027 186.174V113.521C206.027 108.435 204.667 103.536 202.193 99.2727C199.719 95.0096 196.144 91.383 191.72 88.8427C190.178 87.9594 188.547 87.5589 186.96 87.5589Z" fill="#F5F5F5"/>
<path d="M172.73 251.991L160.809 245.133C151.955 240.047 146.501 230.637 146.501 220.46V147.801C146.501 144.52 145.934 141.327 144.871 138.331L141.51 137.536C141.571 137.673 141.631 137.816 141.686 137.953C143.003 141.102 143.67 144.411 143.67 147.801V220.46C143.67 231.603 149.691 241.994 159.387 247.574L171.331 254.438L172.725 255.217L172.73 251.991Z" fill="#F0F0F0"/>
<path d="M161.547 127.825L187.247 113.06C187.643 112.835 187.831 112.303 187.654 111.886C187.302 111.047 186.911 110.218 186.481 109.417C186.117 108.731 185.726 108.062 185.308 107.409C185.06 107.025 184.531 106.904 184.14 107.135L158.44 121.91C158.043 122.135 157.894 122.574 158.104 122.887C158.225 123.079 158.346 123.265 158.467 123.457C159.068 124.439 159.613 125.449 160.092 126.491C160.241 126.815 160.39 127.144 160.528 127.479C160.698 127.891 161.15 128.055 161.547 127.825Z" fill="#27DEBF"/>
<path d="M144.749 124.631L192.172 97.3688C192.569 97.1439 192.635 96.6885 192.31 96.3703C192.15 96.2112 191.99 96.052 191.825 95.8984C191.494 95.5857 190.899 95.5253 190.503 95.7503L143.075 123.018C142.678 123.243 142.634 123.677 142.965 123.99C143.13 124.143 143.29 124.297 143.449 124.456C143.78 124.774 144.353 124.856 144.749 124.631Z" fill="#E0E0E0"/>
<path d="M139.846 121.433C139.543 121.219 139.24 121.01 138.926 120.813C138.458 120.506 137.979 120.22 137.488 119.946C137.263 119.82 137.037 119.705 136.811 119.6C136.431 119.425 136.431 119.123 136.822 118.898L184.272 91.6134C184.668 91.3885 185.032 91.2184 185.087 91.2403C185.12 91.2513 185.153 91.2678 185.186 91.2787C185.649 91.4653 186.106 91.6902 186.558 91.9536C187.302 92.387 188.018 92.8479 188.712 93.3417C189.081 93.605 189.059 94.011 188.663 94.2415L141.235 121.515C140.832 121.735 140.221 121.691 139.846 121.433Z" fill="#27DEBF"/>
<path opacity="0.4" d="M139.846 121.433C139.543 121.219 139.24 121.01 138.926 120.813C138.458 120.506 137.979 120.22 137.488 119.946C137.263 119.82 137.037 119.705 136.811 119.6C136.431 119.425 136.431 119.123 136.822 118.898L184.272 91.6134C184.668 91.3885 185.032 91.2184 185.087 91.2403C185.12 91.2513 185.153 91.2678 185.186 91.2787C185.649 91.4653 186.106 91.6902 186.558 91.9536C187.302 92.387 188.018 92.8479 188.712 93.3417C189.081 93.605 189.059 94.011 188.663 94.2415L141.235 121.515C140.832 121.735 140.221 121.691 139.846 121.433Z" fill="black"/>
<path d="M184.459 147.296V126.991C184.459 126.332 184.426 124.615 184.354 123.973C184.283 122.969 184.156 121.971 183.98 120.988C183.897 120.539 183.5 120.363 183.109 120.593L152.021 138.463C151.625 138.688 151.382 139.237 151.465 139.681C151.74 141.223 151.895 142.797 151.911 144.4C151.922 144.493 151.928 147.253 151.928 147.346V166.006C151.928 166.461 152.247 166.642 152.644 166.417L183.754 148.531C184.14 148.3 184.459 147.746 184.459 147.296Z" fill="#27DEBF"/>
<path opacity="0.8" d="M184.459 147.296V126.991C184.459 126.332 184.426 124.615 184.354 123.973C184.283 122.969 184.156 121.971 183.98 120.988C183.897 120.539 183.5 120.363 183.109 120.593L152.021 138.463C151.625 138.688 151.382 139.237 151.465 139.681C151.74 141.223 151.895 142.797 151.911 144.4C151.922 144.493 151.928 147.253 151.928 147.346V166.006C151.928 166.461 152.247 166.642 152.644 166.417L183.754 148.531C184.14 148.3 184.459 147.746 184.459 147.296Z" fill="white"/>
<path d="M174.961 136.301L169.546 147.143L171.518 149.716L160.456 140.307L151.922 161.199V166C151.922 166.455 152.242 166.637 152.638 166.412L183.748 148.525C184.145 148.3 184.465 147.746 184.465 147.291V144.147L174.961 136.301Z" fill="#27DEBF"/>
<path d="M163.48 165.325L189.164 150.555C189.561 150.33 189.88 150.512 189.88 150.967V154.467C189.88 154.923 189.561 155.477 189.164 155.702L163.48 170.472C163.084 170.697 162.764 170.516 162.764 170.06V166.56C162.77 166.104 163.089 165.55 163.48 165.325Z" fill="#27DEBF"/>
<path d="M158.06 176.167L194.59 155.159C194.987 154.934 195.307 155.115 195.307 155.57V156.497C195.307 156.953 194.987 157.507 194.59 157.732L158.06 178.74C157.663 178.965 157.343 178.784 157.343 178.328V177.401C157.343 176.946 157.663 176.392 158.06 176.167Z" fill="#E0E0E0"/>
<path d="M155.536 182.761L196.623 159.136C197.02 158.911 197.339 159.093 197.339 159.548V160.475C197.339 160.93 197.02 161.485 196.623 161.71L155.536 185.335C155.14 185.56 154.82 185.379 154.82 184.923V183.996C154.82 183.541 155.14 182.986 155.536 182.761Z" fill="#E0E0E0"/>
<path d="M152.638 192.154L165.304 184.874C165.701 184.649 166.02 184.83 166.02 185.285V199.073C166.02 199.528 165.701 200.083 165.304 200.307L152.638 207.588C152.242 207.813 151.922 207.632 151.922 207.177V193.389C151.922 192.934 152.247 192.379 152.638 192.154Z" fill="#27DEBF"/>
<path opacity="0.5" d="M152.638 192.154L165.304 184.874C165.701 184.649 166.02 184.83 166.02 185.285V199.073C166.02 199.528 165.701 200.083 165.304 200.307L152.638 207.588C152.242 207.813 151.922 207.632 151.922 207.177V193.389C151.922 192.934 152.247 192.379 152.638 192.154Z" fill="white"/>
<path d="M169.998 182.174L182.663 174.894C183.06 174.669 183.379 174.85 183.379 175.305V189.093C183.379 189.548 183.06 190.103 182.663 190.327L169.998 197.608C169.601 197.833 169.281 197.652 169.281 197.197V183.409C169.281 182.954 169.601 182.399 169.998 182.174Z" fill="#27DEBF"/>
<path d="M187.351 172.194L200.017 164.914C200.414 164.689 200.733 164.87 200.733 165.325V179.113C200.733 179.568 200.414 180.122 200.017 180.347L187.351 187.628C186.955 187.853 186.635 187.672 186.635 187.217V173.429C186.635 172.973 186.955 172.425 187.351 172.194Z" fill="#27DEBF"/>
<path opacity="0.3" d="M187.351 172.194L200.017 164.914C200.414 164.689 200.733 164.87 200.733 165.325V179.113C200.733 179.568 200.414 180.122 200.017 180.347L187.351 187.628C186.955 187.853 186.635 187.672 186.635 187.217V173.429C186.635 172.973 186.955 172.425 187.351 172.194Z" fill="black"/>
<path d="M198.116 189.186L156.159 213.305C155.762 213.53 155.443 213.349 155.443 212.894V211.972C155.443 211.517 155.762 210.962 156.159 210.737L198.116 186.613C198.513 186.388 198.832 186.569 198.832 187.025V187.952C198.832 188.402 198.507 188.956 198.116 189.186Z" fill="#E0E0E0"/>
<path d="M156.363 218.336L198.326 194.206C198.722 193.981 198.992 193.427 198.948 192.977C198.92 192.709 198.898 192.44 198.876 192.165C198.843 191.71 198.513 191.529 198.116 191.754L156.17 215.873C155.773 216.098 155.465 216.652 155.492 217.107C155.509 217.382 155.531 217.656 155.558 217.925C155.602 218.38 155.971 218.561 156.363 218.336Z" fill="#E0E0E0"/>
<path d="M179.49 210.167L153.795 224.942C153.399 225.167 153.184 225.71 153.322 226.138C155.288 232.157 159.238 237.429 164.632 241.018C165.012 241.27 165.646 241.281 166.042 241.051L191.759 226.264C192.155 226.039 192.161 225.661 191.781 225.408C186.376 221.826 182.421 216.553 180.448 210.54C180.311 210.112 179.887 209.942 179.49 210.167Z" fill="#27DEBF"/>
<path opacity="0.8" d="M179.49 210.167L153.795 224.942C153.399 225.167 153.184 225.71 153.322 226.138C155.288 232.157 159.238 237.429 164.632 241.018C165.012 241.27 165.646 241.281 166.042 241.051L191.759 226.264C192.155 226.039 192.161 225.661 191.781 225.408C186.376 221.826 182.421 216.553 180.448 210.54C180.311 210.112 179.887 209.942 179.49 210.167Z" fill="white"/>
<path opacity="0.8" d="M191.781 225.414C190.1 224.3 188.563 223.022 187.181 221.612C182.895 221.261 176.08 219.845 176.08 219.845L174.074 226.599L178.664 228.207C174.769 228.514 162.77 225.633 162.77 225.633C161.91 229.715 161.949 236.716 161.993 239.021C162.83 239.734 163.712 240.403 164.637 241.018C165.017 241.27 165.651 241.281 166.048 241.051L191.764 226.264C192.155 226.045 192.161 225.666 191.781 225.414Z" fill="#27DEBF"/>
<path opacity="0.8" d="M176.515 216.816C176.978 217.639 178.212 217.947 179.033 217.469C179.848 216.998 180.079 215.9 179.644 215.083C179.209 214.265 178.046 213.837 177.204 214.309C176.355 214.786 176.058 215.999 176.515 216.816Z" fill="#27DEBF"/>
<path d="M190.205 214.298L205.052 205.761C205.449 205.536 205.559 205.048 205.311 204.664C204.799 203.874 204.331 203.062 203.895 202.228C203.686 201.822 203.207 201.674 202.81 201.904L187.963 210.441C187.566 210.666 187.407 211.187 187.616 211.588C188.046 212.422 188.519 213.234 189.026 214.024C189.28 214.408 189.809 214.523 190.205 214.298Z" fill="#27DEBF"/>
<path d="M190.343 219.362L210.627 207.703C211.024 207.478 211.085 207.028 210.782 206.688C210.638 206.529 210.501 206.376 210.363 206.216C210.065 205.871 209.515 205.767 209.118 205.997L188.839 217.661C188.442 217.886 188.354 218.358 188.652 218.704C188.789 218.863 188.927 219.022 189.065 219.176C189.373 219.51 189.952 219.593 190.343 219.362Z" fill="#E0E0E0"/>
<path d="M191.924 221.93C192.111 222.084 192.299 222.237 192.486 222.391C192.844 222.676 193.461 222.709 193.852 222.484L214.148 210.825C214.544 210.6 214.566 210.194 214.208 209.909C214.015 209.755 213.823 209.602 213.635 209.443C213.288 209.152 212.688 209.086 212.297 209.316L192.012 220.981C191.621 221.206 191.577 221.634 191.924 221.93Z" fill="#E0E0E0"/>
<path d="M181.357 237.397L207.074 222.61C207.471 222.385 208.11 222.385 208.506 222.61L209.311 223.077C209.707 223.302 209.707 223.675 209.311 223.9L183.594 238.686C183.197 238.911 182.558 238.911 182.162 238.686L181.357 238.22C180.966 237.995 180.966 237.627 181.357 237.397Z" fill="#E0E0E0"/>
<path d="M174.328 133.361L200.011 118.585C200.408 118.36 200.728 118.541 200.728 118.997V122.497C200.728 122.953 200.408 123.507 200.011 123.732L174.328 138.501C173.931 138.726 173.612 138.545 173.612 138.09V134.595C173.612 134.14 173.937 133.586 174.328 133.361Z" fill="#FAFAFA"/>
<path d="M174.008 138.875C173.893 138.875 173.782 138.847 173.683 138.792C173.463 138.666 173.336 138.408 173.336 138.095V134.601C173.336 134.052 173.711 133.404 174.19 133.13L199.874 118.355C200.149 118.196 200.435 118.179 200.656 118.305C200.876 118.432 201.003 118.69 201.003 119.002V122.503C201.003 123.051 200.628 123.699 200.149 123.973L174.466 138.743C174.311 138.825 174.157 138.875 174.008 138.875ZM174.466 133.597C174.157 133.772 173.887 134.238 173.887 134.595V138.09C173.887 138.227 173.926 138.293 173.959 138.315C173.992 138.331 174.074 138.331 174.19 138.266L199.874 123.496C200.182 123.32 200.452 122.854 200.452 122.497V118.997C200.452 118.86 200.413 118.794 200.38 118.772C200.347 118.755 200.265 118.755 200.149 118.821L174.466 133.597Z" fill="#E0E0E0"/>
<path d="M174.328 141.119L200.011 126.343C200.408 126.118 200.728 126.299 200.728 126.755V130.255C200.728 130.711 200.408 131.265 200.011 131.49L174.328 146.259C173.931 146.484 173.612 146.303 173.612 145.848V142.353C173.612 141.903 173.937 141.349 174.328 141.119Z" fill="#FAFAFA"/>
<path d="M174.008 146.633C173.893 146.633 173.782 146.605 173.683 146.55C173.463 146.424 173.336 146.166 173.336 145.853V142.359C173.336 141.81 173.711 141.162 174.19 140.888L199.874 126.113C200.149 125.954 200.435 125.937 200.656 126.063C200.876 126.19 201.003 126.448 201.003 126.76V130.261C201.003 130.809 200.628 131.457 200.149 131.731L174.466 146.501C174.311 146.589 174.157 146.633 174.008 146.633ZM200.336 126.524C200.292 126.524 200.232 126.541 200.155 126.585L174.471 141.36C174.163 141.536 173.893 142.002 173.893 142.359V145.853C173.893 145.991 173.931 146.056 173.964 146.078C173.997 146.095 174.08 146.095 174.196 146.029L199.879 131.259C200.188 131.084 200.458 130.617 200.458 130.261V126.76C200.458 126.623 200.419 126.557 200.386 126.535C200.375 126.524 200.358 126.524 200.336 126.524Z" fill="#E0E0E0"/>
<path d="M256.066 78.6597L228.598 94.4226C228.152 94.6804 227.788 95.3059 227.788 95.8216V129.015C227.788 129.531 228.152 130.156 228.604 130.409L230.086 131.243C230.537 131.495 231.264 131.495 231.716 131.237L259.185 115.474C259.631 115.217 259.994 114.591 259.994 114.075V80.8818C259.994 80.366 259.631 79.7406 259.179 79.4882L257.697 78.6542C257.245 78.4018 256.518 78.4018 256.066 78.6597Z" fill="#27DEBF"/>
<path d="M230.906 130.776V97.5828C230.906 97.0671 231.27 96.4416 231.716 96.1837L259.185 80.4209C259.631 80.163 259.994 80.3715 259.994 80.8872V114.081C259.994 114.597 259.631 115.222 259.185 115.48L231.716 131.243C231.27 131.501 230.906 131.292 230.906 130.776Z" fill="#27DEBF"/>
<path opacity="0.2" d="M231.722 131.243C231.286 131.495 230.499 131.501 230.091 131.254L228.609 130.414C228.157 130.162 227.788 129.542 227.788 129.026V95.8271C227.788 95.5583 227.887 95.262 228.047 94.9986L231.149 96.7818C231 97.0341 230.906 97.3194 230.906 97.5773V130.771C230.906 131.248 231.242 131.523 231.722 131.243Z" fill="black"/>
<path opacity="0.4" d="M259.989 80.7336C259.923 80.3276 259.592 80.1795 259.185 80.4099L231.722 96.1782C231.496 96.3099 231.292 96.5294 231.149 96.7818L228.047 94.9986C228.196 94.7572 228.389 94.5487 228.609 94.4226L256.077 78.6542C256.524 78.3963 257.251 78.3909 257.708 78.6487L259.19 79.4827C259.592 79.7186 259.928 80.2508 259.989 80.7336Z" fill="white"/>
<path d="M224.136 118.327C223.623 118.026 221.232 116.676 221.106 116.605C220.731 116.374 220.593 115.826 220.946 115.453L227.86 106.861L230.906 108.6L223.998 117.192C223.662 117.554 223.794 118.081 224.136 118.327Z" fill="#27DEBF"/>
<path opacity="0.4" d="M224.136 118.327C223.623 118.026 221.232 116.676 221.106 116.605C220.731 116.374 220.593 115.826 220.946 115.453L227.86 106.861L230.906 108.6L223.998 117.192C223.662 117.554 223.794 118.081 224.136 118.327Z" fill="white"/>
<path d="M230.906 108.6L223.992 117.192C223.524 117.691 223.866 118.377 224.455 118.432L230.901 119.128L232.879 113.708L230.906 108.6Z" fill="#27DEBF"/>
<path d="M253.714 103.097C253.648 103.947 253.499 104.743 253.262 105.489C253.025 106.235 252.733 106.904 252.392 107.497C252.05 108.09 251.67 108.6 251.257 109.028C250.838 109.456 250.42 109.774 249.995 109.993C249.241 110.377 248.662 110.515 248.26 110.41C247.858 110.306 247.555 110.12 247.362 109.851C247.23 110.131 247.098 110.416 246.949 110.707C246.806 110.997 246.624 111.283 246.403 111.568C246.183 111.853 245.913 112.128 245.594 112.402C245.274 112.671 244.877 112.929 244.409 113.165C243.853 113.45 243.351 113.549 242.911 113.461C242.47 113.373 242.101 113.115 241.798 112.687C241.495 112.259 241.274 111.678 241.137 110.943C240.994 110.207 240.944 109.335 240.988 108.325C241.027 107.316 241.148 106.356 241.346 105.445C241.544 104.534 241.809 103.711 242.134 102.965C242.459 102.219 242.85 101.566 243.313 101.012C243.77 100.458 244.282 100.035 244.839 99.75C245.456 99.4373 245.913 99.3385 246.205 99.4592C246.497 99.5799 246.734 99.7994 246.91 100.118L246.921 99.8213C246.932 99.5799 246.998 99.344 247.125 99.1026C247.252 98.8667 247.401 98.7021 247.566 98.6198L248.745 98.0217C248.91 97.9394 249.053 97.9504 249.164 98.0656C249.274 98.1808 249.329 98.3564 249.318 98.5978L249.037 105.615C249.015 106.142 249.114 106.487 249.34 106.658C249.56 106.822 249.825 106.833 250.128 106.674C250.431 106.52 250.695 106.241 250.926 105.829C251.158 105.423 251.301 104.858 251.362 104.139C251.417 103.53 251.455 102.905 251.483 102.252C251.51 101.604 251.51 101.006 251.488 100.458C251.444 99.2946 251.301 98.329 251.053 97.5499C250.805 96.7708 250.436 96.2112 249.957 95.8655C249.478 95.5199 248.861 95.3882 248.111 95.465C247.362 95.5473 246.464 95.8491 245.423 96.3813C244.547 96.8257 243.754 97.4072 243.043 98.126C242.332 98.8447 241.715 99.6512 241.192 100.551C240.668 101.456 240.239 102.433 239.897 103.486C239.561 104.54 239.324 105.621 239.192 106.718C239.148 107.02 239.115 107.409 239.087 107.881C239.06 108.358 239.038 108.852 239.016 109.368C238.994 109.884 238.977 110.383 238.966 110.86C238.955 111.338 238.955 111.727 238.977 112.018C239.027 113.027 239.181 113.894 239.451 114.619C239.715 115.343 240.09 115.902 240.558 116.297C241.032 116.692 241.605 116.895 242.288 116.901C242.966 116.912 243.748 116.692 244.624 116.243C245.241 115.93 245.781 115.612 246.238 115.293C246.695 114.975 247.098 114.651 247.439 114.322C247.786 113.993 248.084 113.675 248.332 113.368C248.58 113.06 248.805 112.753 249.009 112.457C249.18 112.199 249.318 112.001 249.422 111.875C249.522 111.749 249.659 111.645 249.825 111.557L251.499 110.701C251.665 110.619 251.808 110.624 251.929 110.723C252.05 110.822 252.1 111.019 252.072 111.31C252.067 111.486 252.006 111.678 251.896 111.886C251.56 112.512 251.185 113.165 250.761 113.85C250.342 114.536 249.847 115.211 249.274 115.869C248.701 116.528 248.023 117.175 247.246 117.806C246.464 118.437 245.55 119.024 244.492 119.567C243.181 120.237 242.035 120.544 241.06 120.495C240.085 120.44 239.275 120.111 238.625 119.507C237.975 118.904 237.479 118.07 237.137 117.005C236.796 115.941 236.608 114.739 236.57 113.406C236.57 113.104 236.575 112.698 236.586 112.188C236.597 111.678 236.619 111.14 236.641 110.58C236.663 110.021 236.691 109.489 236.718 108.978C236.746 108.468 236.774 108.068 236.801 107.777C236.933 106.378 237.214 104.946 237.649 103.486C238.085 102.027 238.669 100.639 239.401 99.3166C240.134 97.9943 241.016 96.7873 242.04 95.6954C243.065 94.6036 244.238 93.7203 245.55 93.0509C247.092 92.2663 248.387 91.8768 249.433 91.8768C250.486 91.8768 251.334 92.1786 251.984 92.7711C252.634 93.3637 253.103 94.2141 253.389 95.3169C253.675 96.4197 253.841 97.6706 253.868 99.0752C253.874 99.6293 253.863 100.288 253.835 101.045C253.808 101.807 253.769 102.488 253.714 103.097ZM243.368 107.107C243.324 108.183 243.434 108.945 243.698 109.39C243.963 109.84 244.354 109.928 244.883 109.659C245.439 109.373 245.875 108.869 246.178 108.144C246.481 107.42 246.651 106.509 246.695 105.412C246.74 104.337 246.629 103.569 246.376 103.108C246.122 102.647 245.715 102.559 245.153 102.844C244.624 103.113 244.205 103.624 243.891 104.375C243.588 105.116 243.412 106.032 243.368 107.107Z" fill="#FAFAFA"/>
</g>
<defs>
<clipPath id="clip0_31_2">
<rect width="199" height="216" fill="white" transform="translate(61 41)"/>
</clipPath>
</defs>
</svg>
